<svg width="15" height="24" viewBox="0 0 15 24" fill="none" xmlns="http://www.w3.org/2000/svg">
<path d="M1.25368 0.383614L0.416035 1.16977C0.154438 1.41718 0.0103227 1.74636 0.0103227 2.09816C0.0103228 2.44978 0.154438 2.77934 0.416035 3.02676L9.90578 11.9946L0.405506 20.9729C0.143909 21.2199 -1.07117e-07 21.5494 -9.17478e-08 21.9011C-7.63783e-08 22.2527 0.143909 22.5824 0.405506 22.8296L1.23799 23.616C1.77935 24.128 2.66118 24.128 3.20255 23.616L14.5544 12.9263C14.8158 12.6793 15 12.3501 15 11.9954L15 11.9913C15 11.6395 14.8156 11.3103 14.5544 11.0633L3.23331 0.383613C2.97192 0.136196 2.61308 0.000388985 2.24102 -9.7958e-08C1.86875 -8.16858e-08 1.51486 0.136196 1.25368 0.383614Z" fill="white"/>
</svg>
