<svg width="8" height="13" viewBox="0 0 8 13" fill="none" xmlns="http://www.w3.org/2000/svg">
<path d="M0.66863 0.404593L0.221885 0.823875C0.0823671 0.955831 0.00550546 1.13139 0.00550547 1.31902C0.00550547 1.50655 0.0823672 1.68231 0.221885 1.81427L5.28308 6.59714L0.21627 11.3855C0.0767516 11.5173 -5.71292e-08 11.693 -4.89321e-08 11.8806C-4.07351e-08 12.0681 0.0767516 12.244 0.21627 12.3758L0.660262 12.7952C0.948988 13.0683 1.4193 13.0683 1.70802 12.7952L7.76237 7.09405C7.90177 6.96231 8 6.78675 8 6.59755L8 6.59537C8 6.40774 7.90166 6.23218 7.76237 6.10043L1.72443 0.404593C1.58502 0.272638 1.39364 0.200208 1.19521 0.2C0.996668 0.2 0.807928 0.272638 0.66863 0.404593Z" fill="white"/>
</svg>
