<svg width="24" height="15" viewBox="0 0 24 15" fill="none" xmlns="http://www.w3.org/2000/svg">
<path d="M0.383614 13.7463L1.16977 14.584C1.41718 14.8456 1.74636 14.9897 2.09816 14.9897C2.44978 14.9897 2.77934 14.8456 3.02676 14.584L11.9946 5.09422L20.9729 14.5945C21.2199 14.8561 21.5494 15 21.9011 15C22.2527 15 22.5824 14.8561 22.8296 14.5945L23.616 13.762C24.128 13.2206 24.128 12.3388 23.616 11.7975L12.9264 0.44556C12.6793 0.184171 12.3502 -1.01846e-06 11.9954 -1.04947e-06L11.9913 -1.04983e-06C11.6395 -1.08059e-06 11.3103 0.184377 11.0633 0.44556L0.383614 11.7667C0.136196 12.0281 0.000389328 12.3869 1.95916e-07 12.759C1.63372e-07 13.1312 0.136196 13.4851 0.383614 13.7463Z" fill="#C9C9C9"/>
</svg>
