<svg width="100" height="100" viewBox="0 0 100 100" fill="none" xmlns="http://www.w3.org/2000/svg">
<path d="M99.9801 53.816C99.8605 51.0466 97.1508 48.835 91.9107 47.241C87.8462 46.0256 82.6858 45.2884 77.107 45.1689V23.9097C77.0871 23.551 76.9874 23.2123 76.8081 22.9135C76.2503 20.5026 73.5605 18.55 68.7986 17.1155C64.3156 15.7606 58.4579 15.0234 52.3013 15.0234C46.1646 15.0234 40.3666 15.7606 35.9633 17.1155C32.357 18.2312 28.0335 20.3034 28.0335 23.8698C28.0335 24.089 28.0534 24.3082 28.0932 24.5273L28.3124 33.6128C15.3616 31.1422 2.8691 39.6499 0.41841 52.5807C0.13947 54.0551 0 55.5295 0 57.0238C0 70.1739 10.6993 80.8732 23.8494 80.8732C29.3286 80.8732 34.6284 79.0003 38.8723 75.5335C42.5981 76.4102 46.9815 76.8884 51.6238 76.9282C52.64 82.4472 64.5945 84.9776 75.7322 84.9776C81.8689 84.9776 87.6669 84.2205 92.0701 82.8457C95.6764 81.73 100 79.6379 100 76.0715V54.1946C100 54.075 100 53.9356 99.9801 53.816ZM72.9428 34.9278C72.9428 35.1868 71.9865 36.5616 67.6629 37.8766C63.6183 39.092 58.0195 39.8093 52.3212 39.8093C47.3999 39.8093 42.5782 39.2912 38.7527 38.3149C38.693 38.295 38.6531 38.295 38.5933 38.2751C36.7005 36.7808 34.6085 35.5853 32.357 34.7485L32.2176 29.1298C33.5924 29.8272 35.0269 30.3851 36.5212 30.7835C40.8448 32.0388 46.4435 32.7162 52.3212 32.7162C58.4579 32.7162 64.3355 31.979 68.8185 30.6242C70.3128 30.1858 71.7673 29.608 73.1421 28.8907V34.1109C72.9229 34.3898 72.9428 34.6489 72.9428 34.9278ZM37.1588 20.9609C41.1835 19.7256 46.5631 19.0282 52.3013 19.0282C57.9996 19.0282 63.5983 19.7256 67.643 20.9609C71.9665 22.2759 72.9229 23.6307 72.9229 23.8897C72.9229 24.1687 71.9466 25.5435 67.623 26.8385C63.5784 28.0539 57.9996 28.7513 52.3013 28.7513C46.8022 28.7513 41.582 28.1137 37.6171 26.9581C33.3333 25.7228 32.1379 24.3679 32.0383 23.9296C32.0383 23.8897 32.0183 23.8897 32.0183 23.8897C32.0383 23.5112 32.9548 22.236 37.1588 20.9609ZM37.2186 71.728C29.1094 79.1 16.5372 78.5221 9.16517 70.413C1.79319 62.3038 2.37099 49.7316 10.4802 42.3596C14.1263 39.0322 18.9081 37.1992 23.8494 37.1992C25.8418 37.1992 27.8143 37.498 29.727 38.0758C36.6408 40.2277 41.841 45.9659 43.3154 53.039C43.5744 54.354 43.7139 55.7088 43.7139 57.0438C43.7338 62.6425 41.3628 67.9623 37.2186 71.728ZM42.2793 72.1663C43.8932 70.1938 45.1883 67.9822 46.1048 65.6112C47.7984 65.7507 49.5517 65.8503 51.3847 65.8702V66.2289L51.5043 72.9832C48.416 72.9433 45.3278 72.6644 42.2793 72.1663ZM47.5991 54.6728C48.7547 54.7525 49.9701 54.7923 51.2054 54.8122L51.325 61.8654C49.9303 61.8455 48.5555 61.7857 47.2405 61.6861C47.5394 60.152 47.6987 58.5779 47.6987 57.0238C47.6987 56.2468 47.6589 55.4697 47.5991 54.6728ZM52.5005 50.8473C52.4407 50.8473 52.361 50.8473 52.3013 50.8473C50.3885 50.8473 48.5356 50.7676 46.8221 50.6481C46.065 47.9782 44.8695 45.4678 43.2556 43.2362C46.2443 43.6148 49.2528 43.814 52.2813 43.814C58.4379 43.814 64.3156 43.0768 68.7986 41.722C70.2929 41.2836 71.7274 40.7058 73.1022 40.0085V45.2287C64.5547 45.4678 55.7681 47.2609 52.5005 50.8473ZM55.1305 54.0153C55.1305 53.9953 55.1305 53.9754 55.1504 53.9356C55.3297 53.3976 56.7444 52.0826 60.8687 50.927C64.734 49.8312 69.7748 49.2334 75.0747 49.2334H75.4134C81.1118 49.2334 86.6906 49.8909 90.7551 51.1263C94.999 52.4014 95.9952 53.7164 96.0151 54.0153V54.0352C95.9952 54.3341 94.999 55.7088 90.5758 57.0238C86.4913 58.2392 81.1118 58.8967 75.4334 58.8967C69.9342 58.8967 64.7141 58.2591 60.7492 57.1235C56.4654 55.8882 55.2899 54.5134 55.1703 54.095C55.1305 54.0153 55.1305 54.0153 55.1305 54.0153ZM90.9145 79.0601C86.8898 80.3153 81.4903 81.0127 75.7521 81.0127C69.994 81.0127 64.6145 80.3353 60.6296 79.1199C56.4256 77.8248 55.5489 76.4899 55.5489 76.191C55.5489 76.1711 55.5489 76.1711 55.5489 76.1512L55.4493 70.3731C57.0432 71.1502 58.697 71.7479 60.4104 72.1862C64.5945 73.2821 69.9143 73.8997 75.3736 73.8997C81.5302 73.8997 87.368 73.1625 91.831 71.8077C93.2855 71.3693 94.6802 70.7915 96.0151 70.1141V76.0914H96.0351C96.0351 76.3703 95.1185 77.7451 90.9145 79.0601ZM96.055 64.3958H96.0351C96.0351 64.5951 95.9155 64.8342 95.9155 65.0533C95.9155 65.3323 94.9791 66.6871 90.6754 68.0021C86.591 69.2374 81.1516 69.9149 75.3935 69.9149C64.3554 69.9149 56.9237 67.4243 55.3696 65.4917L55.3497 63.818L55.27 59.2354C56.6647 59.9328 58.1191 60.4907 59.6135 60.9091C63.937 62.1643 69.5358 62.8417 75.4134 62.8417C81.4704 62.8417 87.2485 62.1245 91.6916 60.8095C93.2058 60.391 94.6603 59.8132 96.055 59.096V64.3958Z" fill="#656565"/>
<path d="M31.1018 59.8533C30.1853 56.6056 27.2166 54.3741 23.8494 54.3741C21.8968 54.3741 20.3028 52.8001 20.3028 50.8475C20.3228 48.875 21.8968 47.301 23.8494 47.301C25.8019 47.301 27.3959 48.8949 27.3959 50.8475C27.3959 51.9433 28.2925 52.8399 29.3883 52.8399C30.4841 52.8399 31.3807 51.9433 31.3807 50.8475C31.3807 47.4803 29.1492 44.5116 25.9016 43.5951V42.6985C25.9016 41.6026 25.005 40.7061 23.9091 40.7061C22.8133 40.7061 21.9167 41.6026 21.9167 42.6985V43.5552C17.9119 44.6311 15.521 48.7555 16.5969 52.7602C17.4736 56.0477 20.4423 58.339 23.8494 58.339C25.8019 58.339 27.3959 59.9131 27.3959 61.8656C27.3959 63.8182 25.8219 65.4122 23.8693 65.4122C21.9167 65.4122 20.3228 63.8381 20.3228 61.8856C20.3228 60.7897 19.4262 59.8931 18.3303 59.8931C17.2345 59.8931 16.3379 60.7897 16.3379 61.8856C16.3578 65.2926 18.6292 68.2613 21.9167 69.1579V70.8913C21.9167 71.9872 22.8133 72.8838 23.9091 72.8838C25.005 72.8838 25.9016 71.9872 25.9016 70.8913V69.138C29.9063 68.0023 32.2375 63.8581 31.1018 59.8533Z" fill="#656565"/>
</svg>
