<svg width="24" height="24" viewBox="0 0 24 24" fill="none" xmlns="http://www.w3.org/2000/svg">
<path d="M23.9826 4.44434V5.14559C23.8676 5.65434 23.722 6.14997 23.4382 6.59747C22.9763 7.32497 22.3895 7.93059 21.6838 8.42184C19.5732 9.88997 17.4626 11.3575 15.3501 12.8225C14.7551 13.2356 14.1551 13.6412 13.5557 14.0475C13.4463 14.1212 13.3263 14.18 13.2107 14.2443C12.4107 14.6912 11.6063 14.7056 10.8107 14.2425C10.3738 13.9881 9.94258 13.7218 9.52758 13.4337C7.13445 11.7712 4.74695 10.1006 2.35758 8.43309C1.51945 7.84809 0.837576 7.11622 0.355701 6.21497C-0.152424 5.26497 -0.0761737 4.32247 0.503201 3.42559C0.840076 2.90434 1.35445 2.66747 1.96258 2.62184C2.09445 2.61247 2.22695 2.61622 2.35945 2.61622H21.6532C22.8976 2.61622 23.6501 3.20122 23.9569 4.40622C23.9607 4.41997 23.9738 4.43122 23.9826 4.44434Z" fill="#C9C9C9"/>
<path d="M23.9825 8.70117V18.9937C23.8481 18.8643 23.7118 18.7368 23.58 18.6049C21.7825 16.8087 19.9862 15.0112 18.1881 13.2162C18.1331 13.1612 18.0618 13.1243 17.9756 13.0624C18.0837 12.9812 18.1412 12.9343 18.2025 12.8918C19.6218 11.918 21.0512 10.9574 22.4562 9.96305C22.9937 9.58305 23.4756 9.1243 23.9825 8.70117Z" fill="#C9C9C9"/>
<path d="M23.2081 20.9281C22.8887 21.2256 22.4793 21.3862 22.0168 21.425C21.9237 21.4325 21.83 21.43 21.7362 21.43C15.2493 21.43 8.76185 21.4287 2.27497 21.4331C1.71435 21.4331 1.21685 21.2931 0.782471 20.9118C3.04872 18.6456 5.29747 16.3962 7.56747 14.1262C7.8131 14.3037 8.07185 14.4862 8.3256 14.6756C9.0456 15.2125 9.79622 15.6925 10.64 16.0218C11.5818 16.3893 12.505 16.3706 13.4387 15.9975C14.2425 15.6756 14.9606 15.2168 15.65 14.7031C15.9118 14.5081 16.1793 14.3206 16.4256 14.1431C18.69 16.4081 20.9425 18.6618 23.2081 20.9281Z" fill="#C9C9C9"/>
<path d="M5.97769 13.0006C3.98582 14.9925 2.01457 16.9637 0.0439453 18.9343V8.74747C0.0595703 8.74747 0.0795703 8.74122 0.0864453 8.7481C1.11832 9.82372 2.43457 10.5168 3.6277 11.3737C4.4052 11.9325 5.20145 12.465 5.97769 13.0006Z" fill="#C9C9C9"/>
</svg>
