<svg width="50" height="50" viewBox="0 0 50 50" fill="none" xmlns="http://www.w3.org/2000/svg">
<rect width="50" height="50" rx="5" fill="#3B5998"/>
<path d="M17.9057 25.978H21.1942V39.5161C21.1942 39.7834 21.4108 40 21.6781 40H27.2538C27.5211 40 27.7377 39.7834 27.7377 39.5161V26.0418H31.5181C31.7639 26.0418 31.9707 25.8573 31.9988 25.6132L32.5729 20.6291C32.5887 20.492 32.5453 20.3546 32.4535 20.2518C32.3617 20.1488 32.2303 20.0899 32.0924 20.0899H27.7379V16.9656C27.7379 16.0238 28.245 15.5462 29.2453 15.5462C29.3878 15.5462 32.0924 15.5462 32.0924 15.5462C32.3596 15.5462 32.5762 15.3295 32.5762 15.0624V10.4875C32.5762 10.2202 32.3596 10.0036 32.0924 10.0036H28.1686C28.141 10.0022 28.0795 10 27.9889 10C27.3081 10 24.9417 10.1336 23.0724 11.8533C21.0013 13.759 21.2892 16.0407 21.358 16.4364V20.0898H17.9057C17.6385 20.0898 17.4219 20.3064 17.4219 20.5736V25.494C17.4219 25.7613 17.6385 25.978 17.9057 25.978Z" fill="white"/>
</svg>
