<svg width="50" height="50" viewBox="0 0 50 50" fill="none" xmlns="http://www.w3.org/2000/svg">
<rect width="50" height="50" rx="5" fill="url(#paint0_radial)"/>
<path d="M13.852 10.001H36.1498C38.2682 10.001 40 11.7334 40 13.8518V36.1496C40 38.2674 38.2682 39.9986 36.1498 39.9986H13.852C11.7336 39.9986 10 38.2673 10 36.1496V13.8518C10 11.7334 11.7336 10.001 13.852 10.001ZM31.8546 13.3327C31.1108 13.3327 30.5041 13.9418 30.5041 14.6852V17.9166C30.5041 18.6603 31.1108 19.268 31.8546 19.268H35.2449C35.9875 19.268 36.5955 18.6603 36.5955 17.9166V14.6852C36.5955 13.9418 35.9875 13.3327 35.2449 13.3327H31.8546ZM36.6084 22.6866H33.9688C34.2191 23.5041 34.3548 24.3662 34.3548 25.2625C34.3548 30.2507 30.1782 34.2965 25.0282 34.2965C19.8795 34.2965 15.7028 30.2507 15.7028 25.2625C15.7028 24.3662 15.8398 23.5041 16.0889 22.6866H13.335V35.3598C13.335 36.0161 13.8709 36.55 14.5266 36.55H35.4173C36.0736 36.55 36.6084 36.0161 36.6084 35.3598V22.6866ZM25.0283 19.0976C21.7023 19.0976 19.0043 21.7104 19.0043 24.9364C19.0043 28.1591 21.7023 30.7739 25.0283 30.7739C28.3561 30.7739 31.0542 28.1591 31.0542 24.9364C31.0542 21.7103 28.3561 19.0976 25.0283 19.0976Z" fill="white"/>
<defs>
<radialGradient id="paint0_radial" cx="0" cy="0" r="1" gradientUnits="userSpaceOnUse" gradientTransform="translate(1.49012e-06 50) rotate(-45) scale(70.7107)">
<stop stop-color="#FCB045"/>
<stop offset="0.46875" stop-color="#FD1D1D"/>
<stop offset="1" stop-color="#833AB4"/>
</radialGradient>
</defs>
</svg>
