<svg width="30" height="30" viewBox="0 0 30 30" fill="none" xmlns="http://www.w3.org/2000/svg">
<g clip-path="url(#clip0)">
<path d="M15.0052 7.29761C10.7515 7.29761 7.30774 10.7451 7.30774 14.9951C7.30774 19.2489 10.7552 22.6926 15.0052 22.6926C19.259 22.6926 22.7027 19.2451 22.7027 14.9951C22.7027 10.7414 19.2552 7.29761 15.0052 7.29761ZM15.0052 19.9914C12.244 19.9914 10.009 17.7551 10.009 14.9951C10.009 12.2351 12.2452 9.99886 15.0052 9.99886C17.7652 9.99886 20.0015 12.2351 20.0015 14.9951C20.0027 17.7551 17.7665 19.9914 15.0052 19.9914Z" fill="white"/>
<path d="M21.185 0.0947216C18.425 -0.0340284 11.5888 -0.0277784 8.82629 0.0947216C6.39879 0.208472 4.25754 0.794722 2.53129 2.52097C-0.35371 5.40597 0.0150399 9.29348 0.0150399 14.9947C0.0150399 20.8297 -0.30996 24.6272 2.53129 27.4685C5.42754 30.3635 9.37129 29.9847 15.005 29.9847C20.785 29.9847 22.78 29.9885 24.8238 29.1972C27.6025 28.1185 29.7 25.6347 29.905 21.1735C30.035 18.4122 30.0275 11.5772 29.905 8.81472C29.6575 3.54847 26.8313 0.354722 21.185 0.0947216ZM25.5538 25.5597C23.6625 27.451 21.0388 27.2822 14.9688 27.2822C8.71879 27.2822 6.21254 27.3747 4.38379 25.541C2.27754 23.4447 2.65879 20.0785 2.65879 14.9747C2.65879 8.06847 1.95004 3.09472 8.88129 2.73972C10.4738 2.68347 10.9425 2.66472 14.9513 2.66472L15.0075 2.70222C21.6688 2.70222 26.895 2.00472 27.2088 8.93472C27.28 10.516 27.2963 10.991 27.2963 14.9935C27.295 21.171 27.4125 23.6922 25.5538 25.5597Z" fill="white"/>
<path d="M23.0074 8.79232C24.0008 8.79232 24.8061 7.98699 24.8061 6.99357C24.8061 6.00015 24.0008 5.19482 23.0074 5.19482C22.0139 5.19482 21.2086 6.00015 21.2086 6.99357C21.2086 7.98699 22.0139 8.79232 23.0074 8.79232Z" fill="white"/>
</g>
<defs>
<clipPath id="clip0">
<rect width="30" height="30" fill="white"/>
</clipPath>
</defs>
</svg>
