<svg width="25" height="25" viewBox="0 0 25 25" fill="none" xmlns="http://www.w3.org/2000/svg">
<g clip-path="url(#clip0)">
<path d="M12.5044 6.08105C8.95964 6.08105 6.08984 8.95397 6.08984 12.4956C6.08984 16.0404 8.96276 18.9102 12.5044 18.9102C16.0492 18.9102 18.919 16.0373 18.919 12.4956C18.919 8.95085 16.0461 6.08105 12.5044 6.08105ZM12.5044 16.6592C10.2034 16.6592 8.34089 14.7956 8.34089 12.4956C8.34089 10.1956 10.2044 8.3321 12.5044 8.3321C14.8044 8.3321 16.668 10.1956 16.668 12.4956C16.669 14.7956 14.8055 16.6592 12.5044 16.6592Z" fill="#8E8E8E"/>
<path d="M17.6544 0.0795043C15.3544 -0.0277873 9.65753 -0.022579 7.35545 0.0795043C5.33253 0.174296 3.54815 0.662838 2.10961 2.10138C-0.294555 4.50555 0.0127367 7.74513 0.0127367 12.4962C0.0127367 17.3587 -0.258097 20.5233 2.10961 22.891C4.52315 25.3035 7.80961 24.9878 12.5044 24.9878C17.3211 24.9878 18.9836 24.991 20.6867 24.3316C23.0023 23.4326 24.7502 21.3628 24.9211 17.6451C25.0294 15.3441 25.0232 9.64826 24.9211 7.34617C24.7148 2.95763 22.3596 0.296171 17.6544 0.0795043ZM21.295 21.3003C19.719 22.8764 17.5325 22.7358 12.4742 22.7358C7.26586 22.7358 5.17732 22.8128 3.65336 21.2847C1.89815 19.5378 2.21586 16.7326 2.21586 12.4795C2.21586 6.7243 1.62524 2.5795 7.40128 2.28367C8.72836 2.2368 9.11899 2.22117 12.4596 2.22117L12.5065 2.25242C18.0575 2.25242 22.4127 1.67117 22.6742 7.44617C22.7336 8.76388 22.7471 9.15971 22.7471 12.4951C22.7461 17.643 22.844 19.7441 21.295 21.3003Z" fill="#8E8E8E"/>
<path d="M19.1728 7.32701C20.0006 7.32701 20.6717 6.65591 20.6717 5.82806C20.6717 5.00021 20.0006 4.3291 19.1728 4.3291C18.3449 4.3291 17.6738 5.00021 17.6738 5.82806C17.6738 6.65591 18.3449 7.32701 19.1728 7.32701Z" fill="#8E8E8E"/>
</g>
<defs>
<clipPath id="clip0">
<rect width="25" height="25" fill="white"/>
</clipPath>
</defs>
</svg>
