<svg width="74" height="24" viewBox="0 0 74 24" fill="none" xmlns="http://www.w3.org/2000/svg">
<g clip-path="url(#clip0)">
<path d="M69.8768 17.0312H66.4688V18.7358V20.4404C66.4688 22.3234 67.9938 23.8485 69.8768 23.8485C71.7587 23.8485 73.2849 22.3234 73.2849 20.4404C73.2849 18.5574 71.7587 17.0312 69.8768 17.0312Z" fill="#00DC08"/>
<path d="M23.4782 10.2148H16.662V13.6229V17.0309C16.662 20.7959 19.7133 23.8471 23.4782 23.8471C27.2419 23.8471 30.2943 20.7959 30.2943 17.0309C30.2943 13.2672 27.2408 10.2148 23.4782 10.2148ZM23.4782 20.439C21.5963 20.439 20.0701 18.9128 20.0701 17.0309V13.6229H23.4782C25.36 13.6229 26.8862 15.1491 26.8862 17.0309C26.8862 18.9128 25.3589 20.439 23.4782 20.439Z" fill="#1E1E1E"/>
<path d="M11.5921 0C10.6506 0 9.88749 0.76308 9.88749 1.70459V11.1264V17.0313C9.88749 18.9132 8.36133 20.4393 6.47943 20.4393C4.59754 20.4393 3.07138 18.9132 3.07138 17.0313C3.07138 16.0898 2.3083 15.3267 1.36679 15.3267C0.42641 15.3267 -0.33667 16.0898 -0.33667 17.0313C-0.33667 20.7962 2.71565 23.8474 6.47943 23.8474C10.2443 23.8474 13.2955 20.7962 13.2955 17.0313V1.70459C13.2955 0.76308 12.5336 0 11.5921 0Z" fill="#1E1E1E"/>
<path d="M56.5363 3.3978C58.4182 3.3978 59.9444 4.92396 59.9444 6.80585C59.9444 7.74736 60.7074 8.51044 61.649 8.51044C62.5905 8.51044 63.3535 7.74736 63.3535 6.80585C63.3535 3.04095 60.3023 -0.0102539 56.5374 -0.0102539C52.7737 -0.0102539 49.7214 3.04095 49.7214 6.80585C49.7214 8.04698 50.0535 9.21067 50.6348 10.2139C50.9883 10.8266 51.4372 11.381 51.9579 11.8545C53.1698 12.952 54.7756 13.622 56.5386 13.622H56.3938C58.2757 13.622 59.8018 15.1481 59.8018 17.03C59.8018 18.9119 58.2757 20.4381 56.3938 20.4381C54.5108 20.4381 52.9858 18.9119 52.9858 17.03C52.9858 16.0885 52.2227 15.3254 51.2812 15.3254C50.3397 15.3254 49.5766 16.0885 49.5766 17.03C49.5766 20.7938 52.6278 23.8461 56.3927 23.8461C60.1565 23.8461 63.2088 20.7938 63.2088 17.03C63.2088 15.7878 62.8766 14.6252 62.2976 13.622C61.9418 13.0092 61.4941 12.4549 60.9723 11.9813C59.7626 10.8838 58.1556 10.2139 56.3938 10.2139H56.5386C54.6567 10.2139 53.1305 8.68774 53.1305 6.80585C53.1283 4.92396 54.6544 3.3978 56.5363 3.3978Z" fill="#1E1E1E"/>
<path d="M43.3228 11.1275C42.3196 10.5473 41.1559 10.2141 39.9148 10.2141C38.6725 10.2141 37.5099 10.5462 36.5067 11.1253V1.70459C36.5067 0.76308 35.7436 0 34.8021 0C33.8606 0 33.0975 0.76308 33.0975 1.70459V17.0324C33.0975 20.7973 36.1487 23.8485 39.9136 23.8485C43.6774 23.8485 46.7297 20.7973 46.7297 17.0324C46.7309 14.5086 45.3595 12.3069 43.3228 11.1275ZM39.9148 20.4393C38.0329 20.4393 36.5067 18.9132 36.5067 17.0313C36.5067 15.1494 38.0329 13.6232 39.9148 13.6232C41.7966 13.6232 43.3228 15.1494 43.3228 17.0313C43.3228 18.9132 41.7966 20.4393 39.9148 20.4393Z" fill="#1E1E1E"/>
</g>
<defs>
<clipPath id="clip0">
<rect width="73.2849" height="24" fill="white"/>
</clipPath>
</defs>
</svg>
