<svg width="92" height="30" viewBox="0 0 92 30" fill="none" xmlns="http://www.w3.org/2000/svg">
<g clip-path="url(#clip0)">
<path d="M87.346 21.2891H83.0859V23.4198V25.5505C83.0859 27.9043 84.9922 29.8106 87.346 29.8106C89.6984 29.8106 91.6061 27.9043 91.6061 25.5505C91.6061 23.1968 89.6984 21.2891 87.346 21.2891Z" fill="#00DC08"/>
<path d="M29.3478 12.7688H20.8276V17.0289V21.2889C20.8276 25.9951 24.6416 29.8091 29.3478 29.8091C34.0525 29.8091 37.8679 25.9951 37.8679 21.2889C37.8679 16.5842 34.0511 12.7688 29.3478 12.7688ZM29.3478 25.549C26.9954 25.549 25.0877 23.6413 25.0877 21.2889V17.0289H29.3478C31.7001 17.0289 33.6078 18.9366 33.6078 21.2889C33.6078 23.6413 31.6987 25.549 29.3478 25.549Z" fill="#1E1E1E"/>
<path d="M14.49 0C13.3131 0 12.3593 0.95385 12.3593 2.13073V13.908V21.2891C12.3593 23.6415 10.4516 25.5492 8.09923 25.5492C5.74687 25.5492 3.83917 23.6415 3.83917 21.2891C3.83917 20.1122 2.88532 19.1584 1.70843 19.1584C0.532952 19.1584 -0.420898 20.1122 -0.420898 21.2891C-0.420898 25.9952 3.3945 29.8092 8.09923 29.8092C12.8054 29.8092 16.6194 25.9952 16.6194 21.2891V2.13073C16.6194 0.95385 15.6669 0 14.49 0Z" fill="#1E1E1E"/>
<path d="M70.6704 4.24737C73.0227 4.24737 74.9304 6.15507 74.9304 8.50743C74.9304 9.68432 75.8843 10.6382 77.0612 10.6382C78.238 10.6382 79.1919 9.68432 79.1919 8.50743C79.1919 3.8013 75.3779 -0.0126953 70.6718 -0.0126953C65.967 -0.0126953 62.1517 3.8013 62.1517 8.50743C62.1517 10.0588 62.5669 11.5135 63.2935 12.7675C63.7353 13.5334 64.2964 14.2263 64.9473 14.8183C66.4622 16.1901 68.4695 17.0276 70.6732 17.0276H70.4922C72.8446 17.0276 74.7523 18.9353 74.7523 21.2876C74.7523 23.64 72.8446 25.5477 70.4922 25.5477C68.1385 25.5477 66.2322 23.64 66.2322 21.2876C66.2322 20.1107 65.2783 19.1569 64.1014 19.1569C62.9246 19.1569 61.9707 20.1107 61.9707 21.2876C61.9707 25.9924 65.7847 29.8078 70.4908 29.8078C75.1955 29.8078 79.0109 25.9924 79.0109 21.2876C79.0109 19.7348 78.5957 18.2816 77.8719 17.0276C77.4273 16.2617 76.8676 15.5687 76.2153 14.9768C74.7032 13.6049 72.6945 12.7675 70.4922 12.7675H70.6732C68.3208 12.7675 66.4131 10.8598 66.4131 8.50743C66.4103 6.15507 68.318 4.24737 70.6704 4.24737Z" fill="#1E1E1E"/>
<path d="M54.1534 13.9094C52.8994 13.1842 51.4448 12.7676 49.8933 12.7676C48.3405 12.7676 46.8873 13.1828 45.6333 13.9066V2.13073C45.6333 0.95385 44.6794 0 43.5026 0C42.3257 0 41.3718 0.95385 41.3718 2.13073V21.2905C41.3718 25.9966 45.1858 29.8106 49.8919 29.8106C54.5967 29.8106 58.4121 25.9966 58.4121 21.2905C58.4135 18.1358 56.6993 15.3836 54.1534 13.9094ZM49.8933 25.5492C47.541 25.5492 45.6333 23.6415 45.6333 21.2891C45.6333 18.9367 47.541 17.029 49.8933 17.029C52.2457 17.029 54.1534 18.9367 54.1534 21.2891C54.1534 23.6415 52.2457 25.5492 49.8933 25.5492Z" fill="#1E1E1E"/>
</g>
<defs>
<clipPath id="clip0">
<rect width="91.6061" height="30" fill="white"/>
</clipPath>
</defs>
</svg>
