<svg width="15" height="24" viewBox="0 0 15 24" fill="none" xmlns="http://www.w3.org/2000/svg">
<path d="M13.7463 23.6164L14.584 22.8302C14.8456 22.5828 14.9897 22.2536 14.9897 21.9018C14.9897 21.5502 14.8456 21.2207 14.584 20.9732L5.09422 12.0054L14.5945 3.02715C14.8561 2.78012 15 2.45056 15 2.09894C15 1.74733 14.8561 1.41757 14.5945 1.17035L13.762 0.384003C13.2206 -0.128001 12.3388 -0.128002 11.7975 0.384002L0.445559 11.0736C0.184169 11.3207 -2.54616e-06 11.6498 -2.62369e-06 12.0046L-2.62458e-06 12.0087C-2.70147e-06 12.3605 0.184375 12.6897 0.445559 12.9367L11.7667 23.6164C12.0281 23.8638 12.3869 23.9996 12.759 24C13.1312 24 13.4851 23.8638 13.7463 23.6164Z" fill="#8E8E8E"/>
</svg>
