<svg width="15" height="24" viewBox="0 0 15 24" fill="none" xmlns="http://www.w3.org/2000/svg">
<path d="M1.25368 0.384102L0.416035 1.17025C0.154438 1.41767 0.0103227 1.74684 0.0103227 2.09865C0.0103228 2.45026 0.154438 2.77983 0.416035 3.02724L9.90578 11.9951L0.405506 20.9733C0.143909 21.2204 -1.07117e-07 21.5499 -9.17478e-08 21.9015C-7.63783e-08 22.2532 0.143909 22.5829 0.405506 22.8301L1.23799 23.6165C1.77935 24.1285 2.66118 24.1285 3.20255 23.6165L14.5544 12.9268C14.8158 12.6798 15 12.3506 15 11.9959L15 11.9918C15 11.64 14.8156 11.3108 14.5544 11.0638L3.23331 0.384102C2.97192 0.136684 2.61308 0.000877266 2.24102 0.000488183C1.86875 0.0004882 1.51486 0.136684 1.25368 0.384102Z" fill="#8E8E8E"/>
</svg>
