<svg width="16" height="25" viewBox="0 0 16 25" fill="none" xmlns="http://www.w3.org/2000/svg">
<path d="M14.3191 24.6004L15.1916 23.7815C15.4641 23.5238 15.6142 23.1809 15.6142 22.8144C15.6142 22.4482 15.4641 22.1049 15.1916 21.8471L5.30648 12.5056L15.2026 3.15328C15.4751 2.89596 15.625 2.55266 15.625 2.1864C15.625 1.82014 15.4751 1.47664 15.2026 1.21912L14.3354 0.400003C13.7715 -0.133334 12.8529 -0.133334 12.289 0.400003L0.46413 11.5351C0.191848 11.7924 2.05206e-06 12.1353 2.05647e-06 12.5048L2.05652e-06 12.509C2.06089e-06 12.8755 0.192063 13.2184 0.46413 13.4757L12.257 24.6004C12.5293 24.8581 12.903 24.9996 13.2906 25C13.6784 25 14.047 24.8581 14.3191 24.6004Z" fill="#C9C9C9"/>
</svg>
