<svg width="24" height="24" viewBox="0 0 24 24" fill="none" xmlns="http://www.w3.org/2000/svg">
<path d="M23.1175 20.5012C21.6406 19.0394 20.1763 17.5656 18.705 16.0981C18.645 16.0381 18.5644 15.9994 18.5406 15.9825C18.8881 15.3138 19.26 14.7281 19.5106 14.0944C20.9325 10.4975 20.4956 7.10188 18.2181 3.99375C16.595 1.77938 14.3281 0.556875 11.6356 0.105625C11.3681 0.060625 11.0975 0.035 10.8281 0H9.46875C9.07 0.06 8.66687 0.100625 8.2725 0.183125C5.11188 0.844375 2.71187 2.54687 1.18062 5.41437C0.526875 6.63875 0.13625 7.94688 0.036875 9.33687C0.03375 9.38125 0.0125 9.425 0 9.46875V10.8281C0.060625 11.2356 0.099375 11.6481 0.185 12.0506C0.88875 15.3675 2.7 17.8669 5.79375 19.3013C9.22312 20.8919 12.5781 20.6481 15.7812 18.6044C15.8075 18.5875 15.8338 18.5713 15.8606 18.5556C15.8744 18.5481 15.89 18.5444 15.9631 18.5169C16.0681 18.6381 16.1825 18.7869 16.3137 18.9181C17.7219 20.3269 19.1369 21.7287 20.54 23.1419C20.9181 23.5225 21.3 23.88 21.8438 24H22.4531C22.7656 23.8356 23.1019 23.7037 23.3856 23.4994C23.7313 23.2506 23.8875 22.8569 24 22.4531V21.8438C23.8769 21.2838 23.51 20.89 23.1175 20.5012ZM10.1619 16.6131C6.61187 16.68 3.69313 13.6106 3.67875 10.185C3.66438 6.66063 6.66438 3.695 10.1225 3.67875C13.61 3.66313 16.6244 6.62125 16.6281 10.1456C16.6319 13.6419 13.6687 16.6781 10.1619 16.6131Z" fill="#8E8E8E"/>
</svg>
