<svg width="50" height="50" viewBox="0 0 50 50" fill="none" xmlns="http://www.w3.org/2000/svg">
<rect width="50" height="50" rx="5" fill="#0088CC"/>
<g clip-path="url(#clip0)">
<path d="M10.5299 24.4649L17.4425 27.0449L20.1181 35.6496C20.2893 36.2007 20.9632 36.4044 21.4105 36.0387L25.2637 32.8975C25.6676 32.5684 26.2429 32.552 26.665 32.8584L33.6148 37.9041C34.0933 38.2519 34.7712 37.9897 34.8912 37.4115L39.9823 12.9224C40.1133 12.2908 39.4927 11.7639 38.8913 11.9965L10.5218 22.9406C9.82169 23.2106 9.82779 24.2018 10.5299 24.4649ZM19.6869 25.6715L33.1967 17.3508C33.4395 17.2017 33.6893 17.53 33.4808 17.7234L22.3313 28.0874C21.9394 28.4522 21.6866 28.9404 21.615 29.4703L21.2352 32.2849C21.1849 32.6607 20.657 32.698 20.5533 32.3343L19.0926 27.2018C18.9253 26.6164 19.1691 25.9911 19.6869 25.6715Z" fill="white"/>
</g>
<defs>
<clipPath id="clip0">
<rect width="30" height="30" fill="white" transform="translate(10 10)"/>
</clipPath>
</defs>
</svg>
