<svg width="250" height="90" viewBox="0 0 250 90" fill="none" xmlns="http://www.w3.org/2000/svg">
<path d="M136.356 58.432L133.332 55.624C130.932 57.496 128.124 58.432 124.908 58.432C123.084 58.432 121.44 58.144 119.976 57.568C118.512 56.968 117.36 56.14 116.52 55.084C115.704 54.028 115.296 52.84 115.296 51.52C115.296 49.96 115.728 48.592 116.592 47.416C117.48 46.216 118.896 45.076 120.84 43.996C119.928 43.06 119.268 42.172 118.86 41.332C118.452 40.468 118.248 39.58 118.248 38.668C118.248 37.444 118.572 36.364 119.22 35.428C119.868 34.492 120.78 33.772 121.956 33.268C123.156 32.74 124.536 32.476 126.096 32.476C128.28 32.476 130.032 33.004 131.352 34.06C132.672 35.092 133.332 36.496 133.332 38.272C133.332 39.568 132.936 40.72 132.144 41.728C131.376 42.736 130.128 43.708 128.4 44.644L133.008 48.928C133.56 47.776 133.98 46.468 134.268 45.004L138.768 46.408C138.288 48.64 137.52 50.548 136.464 52.132L139.416 54.868L136.356 58.432ZM126.096 36.292C125.256 36.292 124.584 36.508 124.08 36.94C123.6 37.372 123.36 37.924 123.36 38.596C123.36 39.1 123.492 39.58 123.756 40.036C124.02 40.468 124.536 41.056 125.304 41.8C126.528 41.152 127.38 40.576 127.86 40.072C128.34 39.544 128.58 38.98 128.58 38.38C128.58 37.756 128.364 37.252 127.932 36.868C127.5 36.484 126.888 36.292 126.096 36.292ZM125.304 54.04C127.056 54.04 128.628 53.548 130.02 52.564L123.936 46.876C122.808 47.524 122.004 48.16 121.524 48.784C121.044 49.408 120.804 50.116 120.804 50.908C120.804 51.844 121.212 52.6 122.028 53.176C122.844 53.752 123.936 54.04 125.304 54.04Z" fill="white"/>
<g clip-path="url(#clip0)">
<path d="M244.896 27.9508C244.892 27.9499 244.888 27.9484 244.883 27.9474L225.383 23.8704L225.833 21.7197C226.576 18.1619 224.287 14.6622 220.729 13.9184L203.523 10.321C199.965 9.57717 196.466 11.8666 195.722 15.4243L195.272 17.575L175.772 13.498C174.575 13.2477 173.416 14.0296 173.172 15.1991L163.279 62.5159C162.535 66.0736 164.824 69.5733 168.382 70.3172L228.89 82.9679C232.448 83.7117 235.948 81.4223 236.691 77.8646L246.575 30.5932C246.575 30.5904 246.576 30.5876 246.576 30.5848C246.789 29.155 246.081 28.2067 244.896 27.9508ZM200.023 16.3236C200.271 15.1379 201.438 14.3746 202.624 14.6225L219.83 18.2199C221.016 18.4678 221.779 19.6346 221.531 20.8203L221.081 22.9711L199.574 18.4744L200.023 16.3236ZM241 31.625L230.131 50.2654C229.654 51.0841 228.711 51.5035 227.784 51.3097L215.685 48.7802L216.135 46.6294C216.383 45.4415 215.622 44.2774 214.434 44.029L197.228 40.4317C196.04 40.1833 194.876 40.9448 194.627 42.1327L194.178 44.2835L182.079 41.754C181.152 41.5602 180.456 40.7979 180.347 39.8567L177.857 18.4235L241 31.625ZM211.384 47.8809L210.484 52.1824L197.58 49.4844L198.479 45.1828L211.384 47.8809ZM232.39 76.9653C232.142 78.151 230.975 78.9142 229.79 78.6663L169.281 66.0156C168.096 65.7677 167.332 64.6009 167.58 63.4152L174.702 29.352L175.981 40.364C176.309 43.187 178.398 45.474 181.18 46.0555L193.278 48.585L192.829 50.7358C192.58 51.9237 193.342 53.0878 194.53 53.3362L211.736 56.9336C212.924 57.182 214.088 56.4204 214.336 55.2325L214.786 53.0817L226.885 55.6112C229.666 56.1928 232.497 54.9344 233.928 52.4791L239.512 42.902L232.39 76.9653Z" fill="white"/>
</g>
<g clip-path="url(#clip1)">
<path d="M71.2986 1.00339L45.3512 6.45391C41.8378 7.19193 39.0688 9.54251 37.6548 12.5688C35.1425 10.3673 31.6619 9.32949 28.1485 10.0675L2.20112 15.518C1.01356 15.7675 0.253022 16.9325 0.502481 18.1201L13.1501 78.3295C13.3995 79.517 14.5646 80.2776 15.7521 80.0281L67.799 69.0951L70.298 73.1155C71.2274 74.611 72.6836 75.6547 74.3984 76.0551C75.3506 76.2773 76.3193 76.2862 77.2485 76.091C77.9924 75.9348 78.7114 75.6475 79.3763 75.2344C82.445 73.3269 83.4011 69.2915 81.5274 66.2113L84.8496 65.5135C86.0371 65.264 86.7977 64.099 86.5482 62.9114L73.9006 2.70203C73.6511 1.51447 72.4861 0.753933 71.2986 1.00339ZM46.2546 10.7546L70.0516 5.75576L79.989 53.0631L74.1231 54.2954L71.0842 49.4061C74.5143 44.3022 74.8609 37.4457 71.4098 31.8931C71.4098 31.8931 71.4098 31.8931 71.4098 31.893C69.1376 28.2377 65.578 25.6859 61.3867 24.7076C57.1951 23.7295 52.8738 24.4421 49.2186 26.714C47.0506 28.0615 45.2709 29.8619 43.9773 31.9783L41.1588 18.5607C40.4115 15.0036 42.6975 11.5018 46.2546 10.7546ZM48.5273 53.6391C50.1779 54.7852 52.0467 55.6204 54.0623 56.0909C56.0041 56.544 57.9735 56.6331 59.8919 56.3735L60.3929 57.1795L56.192 58.062C53.7737 58.5699 51.7077 59.8421 50.1937 61.5724L48.5273 53.6391ZM55.0611 51.8113C52.0128 51.0998 49.424 49.244 47.7717 46.5854C46.1192 43.927 45.601 40.784 46.3125 37.7356C47.024 34.6875 48.8797 32.0985 51.5385 30.4463C52.7302 29.7056 54.0043 29.2054 55.3041 28.9323C59.9899 27.948 65.0071 29.9166 67.6774 34.2129C71.0885 39.7009 69.3988 46.9409 63.9107 50.352C61.2521 52.0046 58.1092 52.5228 55.0611 51.8113ZM5.25485 19.367L29.0519 14.3682C32.609 13.621 36.1108 15.907 36.858 19.4641L45.8931 62.4758C43.8108 61.501 41.4076 61.1676 38.9893 61.6756L15.1923 66.6744L5.25485 19.367ZM16.0957 70.9751L39.8927 65.9762C42.696 65.3874 45.4638 66.6831 46.8773 68.9995L16.9991 75.2757L16.0957 70.9751ZM51.9176 67.9407C52.2795 65.2514 54.2921 62.9515 57.0954 62.3626L62.8616 61.1514L65.3303 65.1232L51.9176 67.9407ZM77.0563 71.5019C76.5583 71.8117 75.9688 71.9088 75.3971 71.7756C74.8255 71.6421 74.3401 71.2941 74.0303 70.7957L64.2856 55.1178C64.9507 54.8196 65.6007 54.4759 66.2304 54.0845C66.8634 53.6911 67.4588 53.2598 68.0172 52.7967L77.7627 68.4759C78.4023 69.5049 78.0854 70.8624 77.0563 71.5019ZM79.0605 62.2391L76.5918 58.2672L80.8924 57.3638L81.7958 61.6645L79.0605 62.2391Z" fill="white"/>
<path d="M13.5127 26.6136L30.8588 22.9699C32.0463 22.7204 32.8069 21.5554 32.5574 20.3679C32.3079 19.1803 31.1429 18.4198 29.9554 18.6692L12.6093 22.3129C11.4218 22.5624 10.6612 23.7274 10.9107 24.915C11.1601 26.1025 12.3252 26.8631 13.5127 26.6136Z" fill="white"/>
<path d="M15.3194 35.2142L32.6654 31.5705C33.853 31.321 34.6135 30.156 34.364 28.9685C34.1146 27.7809 32.9496 27.0204 31.762 27.2698L14.416 30.9135C13.2284 31.163 12.4679 32.328 12.7173 33.5156C12.9668 34.7031 14.1318 35.4637 15.3194 35.2142Z" fill="white"/>
<path d="M17.126 43.8158L34.472 40.1721C35.6596 39.9226 36.4201 38.7576 36.1707 37.57C35.9212 36.3825 34.7562 35.6219 33.5686 35.8714L16.2226 39.5151C15.035 39.7646 14.2745 40.9296 14.524 42.1171C14.7734 43.3047 15.9384 44.0652 17.126 43.8158Z" fill="white"/>
<path d="M18.9326 52.4173L36.2787 48.7736C37.4662 48.5242 38.2268 47.3591 37.9773 46.1716C37.7279 44.984 36.5628 44.2235 35.3753 44.4729L18.0292 48.1167C16.8417 48.3661 16.0811 49.5311 16.3306 50.7187C16.5801 51.9063 17.7451 52.6668 18.9326 52.4173Z" fill="white"/>
<path d="M39.784 54.7731C39.5345 53.5856 38.3695 52.825 37.1819 53.0745L19.8359 56.7182C18.6483 56.9677 17.8878 58.1327 18.1372 59.3203C18.3867 60.5078 19.5517 61.2684 20.7393 61.0189L38.0853 57.3752C39.2729 57.1257 40.0334 55.9607 39.784 54.7731Z" fill="white"/>
<path d="M48.0615 19.3558L65.4076 15.7121C66.5951 15.4626 67.3557 14.2976 67.1062 13.1101C66.8568 11.9225 65.6917 11.162 64.5042 11.4114L47.1581 15.0551C45.9706 15.3046 45.2101 16.4696 45.4595 17.6572C45.709 18.8447 46.874 19.6053 48.0615 19.3558Z" fill="white"/>
</g>
<defs>
<clipPath id="clip0">
<rect width="75" height="75" fill="white" transform="translate(176.35) rotate(11.809)"/>
</clipPath>
<clipPath id="clip1">
<rect width="75" height="75" fill="white" transform="translate(0.0214844 15.8262) rotate(-11.8631)"/>
</clipPath>
</defs>
</svg>
