<svg width="248" height="92" viewBox="0 0 248 92" fill="none" xmlns="http://www.w3.org/2000/svg">
<path d="M134.284 59.3667L131.116 56.3067C128.764 58.3227 125.944 59.3307 122.656 59.3307C120.904 59.3307 119.332 59.0427 117.94 58.4667C116.548 57.8907 115.456 57.0987 114.664 56.0907C113.872 55.0587 113.476 53.8947 113.476 52.5987C113.476 51.0387 113.932 49.6707 114.844 48.4947C115.756 47.2947 117.244 46.1187 119.308 44.9667C118.3 43.9587 117.58 43.0227 117.148 42.1587C116.716 41.2707 116.5 40.3587 116.5 39.4227C116.5 37.6467 117.16 36.2187 118.48 35.1387C119.824 34.0347 121.6 33.4827 123.808 33.4827C125.848 33.4827 127.48 33.9867 128.704 34.9947C129.928 35.9787 130.54 37.3227 130.54 39.0267C130.54 40.3227 130.132 41.4747 129.316 42.4827C128.524 43.4907 127.216 44.5107 125.392 45.5427L130.828 50.7267C131.428 49.5507 131.896 48.1347 132.232 46.4787L135.868 47.6667C135.388 49.8987 134.632 51.8187 133.6 53.4267L136.768 56.4507L134.284 59.3667ZM123.808 36.6867C122.824 36.6867 122.044 36.9387 121.468 37.4427C120.892 37.9227 120.604 38.5587 120.604 39.3507C120.604 39.9267 120.76 40.4787 121.072 41.0067C121.384 41.5107 121.984 42.2067 122.872 43.0947C124.312 42.3027 125.308 41.6187 125.86 41.0427C126.436 40.4427 126.724 39.7947 126.724 39.0987C126.724 38.3547 126.46 37.7667 125.932 37.3347C125.428 36.9027 124.72 36.6867 123.808 36.6867ZM122.98 55.6587C125.068 55.6587 126.892 55.0227 128.452 53.7507L121.792 47.3787C120.352 48.1707 119.332 48.9387 118.732 49.6827C118.156 50.4027 117.868 51.2187 117.868 52.1307C117.868 53.1867 118.336 54.0387 119.272 54.6867C120.208 55.3347 121.444 55.6587 122.98 55.6587Z" fill="#656565"/>
<g clip-path="url(#clip0)">
<path d="M46.4426 19.3961C45.6603 19.6006 45.1914 20.4015 45.3959 21.1838C45.6005 21.9661 46.4014 22.435 47.1837 22.2305C47.966 22.0259 48.4349 21.225 48.2303 20.4427C48.0258 19.6604 47.2249 19.1915 46.4426 19.3961Z" fill="#656565"/>
<path d="M32.2707 23.1011C31.4884 23.3057 31.0195 24.1066 31.2241 24.8889C31.4286 25.6712 32.2295 26.1401 33.0118 25.9356C33.7941 25.731 34.263 24.9301 34.0585 24.1478C33.8539 23.3655 33.053 22.8966 32.2707 23.1011Z" fill="#656565"/>
<path d="M78.1267 43.7989C78.8658 41.6552 78.8788 39.2182 78.3627 37.2445C77.5847 34.2689 75.5401 31.85 72.7817 30.5684C72.9701 29.2376 72.8976 27.9237 72.564 26.6479C71.5319 22.7003 68.2666 19.6253 64.3924 18.8036C63.7851 14.3575 59.9435 11.1409 55.5178 11.2214C52.9041 7.88136 48.6074 6.26367 44.7845 7.2632C41.2259 8.19362 38.5769 11.1037 37.6158 14.5906C35.0709 12.0204 31.3365 10.7793 27.778 11.7096C23.9548 12.7092 20.9997 16.223 20.3556 20.4149C16.4336 22.5238 14.6895 27.2218 16.3279 31.3704C13.3517 33.983 12.0093 38.2629 13.0414 42.2105C13.375 43.4863 13.9548 44.6675 14.7704 45.7358C12.9924 48.2037 12.3933 51.3137 13.1713 54.2892C13.6901 56.2733 14.8985 58.3878 16.5851 59.8892C15.8384 61.8696 15.7148 64.0175 16.2468 66.052C16.9366 68.6903 18.6634 70.9239 21.0434 72.2954C21.6081 78.43 27.8535 83.1547 33.9298 81.566C33.9737 81.5545 34.0167 81.5425 34.0588 81.5302C36.982 84.4787 41.2954 85.6965 45.3323 84.6411C49.5397 83.541 52.639 80.0326 53.6412 75.8833C56.546 79.0111 60.9658 80.5536 65.1732 79.4535C69.2101 78.3981 72.3755 75.2248 73.4814 71.2228C73.5243 71.213 73.5676 71.2024 73.6115 71.191C78.9889 69.785 82.2932 63.8595 80.827 58.2516C80.7022 57.7741 80.5318 57.2941 80.3112 56.7994C81.7154 54.4385 82.128 51.6457 81.4382 49.0073C80.9062 46.9728 79.7472 45.1602 78.1267 43.7989ZM40.4733 31.3107C39.5123 31.0449 38.4716 31.0194 37.4395 31.2892C36.6568 31.4939 36.1882 32.2942 36.3928 33.077C36.5975 33.8597 37.3978 34.3283 38.1806 34.1236C39.7435 33.715 41.3474 34.6541 41.756 36.217L48.8025 63.1678C46.1067 61.3531 42.6764 60.6559 39.2926 61.5406C38.5099 61.7453 38.0413 62.5457 38.2459 63.3284C38.4506 64.1111 39.2509 64.5797 40.0337 64.375C44.7223 63.1492 49.5342 65.9664 50.7601 70.655C52.0255 75.4947 49.2004 80.6016 44.5913 81.8067C41.3102 82.6645 37.7824 81.514 35.6036 78.8754C35.2019 78.3892 34.5347 78.215 33.9458 78.4419C33.8486 78.4796 33.7525 78.5189 33.6564 78.5586C29.7673 80.1647 24.031 76.7851 23.9247 71.3543C23.9138 70.7965 23.587 70.2935 23.0819 70.0568C21.083 69.12 19.6248 67.3901 19.0812 65.311C18.7451 64.0254 18.7797 62.6723 19.1677 61.3923C21.2317 62.341 23.5647 62.6246 25.7967 62.0411C26.5794 61.8364 27.048 61.036 26.8433 60.2533C26.6387 59.4706 25.8383 59.002 25.0556 59.2067C21.2094 60.2123 17.0517 57.5489 16.0057 53.5482C15.3712 51.1212 16.0245 48.5651 17.7537 46.7105C18.2864 46.1391 18.277 45.2502 17.7322 44.6903C16.8118 43.744 16.1872 42.6603 15.8758 41.4694C14.8757 37.6444 17.0301 33.143 20.998 32.1056C24.7729 31.1186 29.0017 33.7629 30.0479 37.7641C30.2525 38.5468 31.0529 39.0154 31.8356 38.8107C32.6183 38.6061 33.0869 37.8057 32.8823 37.023C31.4161 31.4151 25.6344 27.8652 20.2569 29.2712C19.7824 29.3952 19.3206 29.557 18.8723 29.7519C18.8619 29.7148 18.8495 29.6793 18.8397 29.6417C18.0128 26.4789 19.9251 23.3016 23.0264 22.4907C24.5402 22.0949 26.1184 22.3123 27.47 23.1027C28.1684 23.511 29.0654 23.2759 29.474 22.5777C29.8823 21.8792 29.6473 20.9821 28.949 20.5737C27.3184 19.6202 25.4677 19.2241 23.6241 19.4145C24.3889 17.2325 26.0736 15.1835 28.5191 14.5441C32.294 13.5571 36.5228 16.2012 37.569 20.2026L40.4733 31.3107ZM71.1472 50.1839C73.3793 49.6003 75.2749 48.2109 76.6106 46.3739C77.5753 47.3001 78.2677 48.463 78.6038 49.7484C79.1474 51.8276 78.7224 54.0497 77.4381 55.845C77.1134 56.2987 77.0747 56.8973 77.3382 57.389C77.6515 57.9737 77.8594 58.4833 77.9926 58.9925C79.1427 63.3915 76.0934 67.987 72.378 68.4346C72.2748 68.447 72.1715 68.4596 72.0684 68.4745C71.4428 68.5646 70.9471 69.0434 70.8351 69.6639C70.2266 73.0312 67.7131 75.7613 64.4321 76.6191C59.823 77.8242 54.8599 74.7536 53.5945 69.914C52.3686 65.2253 55.1858 60.4134 59.8745 59.1875C60.6571 58.9829 61.1258 58.1825 60.9212 57.3998C60.7165 56.617 59.916 56.1485 59.1335 56.3531C55.7496 57.2378 53.0995 59.5247 51.6369 62.4267L44.5905 35.4759C44.1818 33.913 45.1209 32.309 46.6838 31.9004C47.4664 31.6958 47.9351 30.8954 47.7305 30.1127C47.5258 29.3299 46.7253 28.8614 45.9427 29.066C44.9106 29.3359 44.0156 29.8675 43.3077 30.5697L40.4034 19.4615C39.3572 15.4601 41.7507 11.0846 45.5256 10.0976C47.9711 9.45821 50.4429 10.4205 52.1778 11.9488C50.4771 12.6851 49.0573 13.9363 48.1019 15.5659C47.6927 16.2638 47.9267 17.1612 48.6246 17.5704C49.3226 17.9797 50.2202 17.7454 50.6291 17.0476C51.4213 15.6967 52.691 14.7347 54.2049 14.3389C57.3218 13.524 60.5328 15.3775 61.3559 18.5256C61.3656 18.563 61.3723 18.6001 61.3814 18.6376C60.8951 18.6871 60.4131 18.772 59.9387 18.8961C54.5612 20.3021 51.2569 26.2276 52.7231 31.8355C52.9278 32.6182 53.7283 33.0867 54.5109 32.8821C55.2935 32.6775 55.7622 31.8771 55.5576 31.0944C54.5114 27.0932 56.9049 22.7175 60.6797 21.7305C64.6454 20.6937 68.729 23.5621 69.7296 27.389C70.041 28.5799 70.0267 29.8306 69.6872 31.1063C69.4864 31.8612 69.9133 32.6409 70.6575 32.8784C73.0729 33.6494 74.8938 35.5586 75.5283 37.9856C76.5781 42.0007 74.241 46.3468 70.4061 47.3494C69.6236 47.5541 69.1548 48.3545 69.3595 49.1372C69.5641 49.9199 70.3646 50.3885 71.1472 50.1839Z" fill="#656565"/>
<path d="M39.5999 41.0274C38.9255 40.5805 38.0167 40.7648 37.5696 41.4392C34.0878 46.6927 25.9731 45.3433 24.3788 39.2455C24.1741 38.4627 23.3738 37.9942 22.591 38.1988C21.8083 38.4034 21.3397 39.2038 21.5444 39.9865C22.8307 44.9064 27.5015 48.0578 32.408 47.602C32.3118 49.4634 31.0279 51.1338 29.1308 51.6298C28.3481 51.8344 27.8795 52.6348 28.0842 53.4175C28.2888 54.2002 29.0892 54.6688 29.8719 54.4642C33.3238 53.5617 35.5566 50.3267 35.3262 46.8906C37.2297 46.1175 38.8642 44.7892 40.0117 43.0576C40.4586 42.3832 40.2742 41.4742 39.5999 41.0274Z" fill="#656565"/>
<path d="M30.8528 69.8023C30.07 70.007 29.6014 70.8073 29.8061 71.5901C30.0107 72.3728 30.8111 72.8414 31.5938 72.6367C35.3687 71.6498 39.5976 74.294 40.6437 78.2952C40.8483 79.0779 41.6487 79.5465 42.4314 79.3419C43.2142 79.1372 43.6828 78.3369 43.4781 77.5541C42.0119 71.9463 36.2302 68.3963 30.8528 69.8023Z" fill="#656565"/>
<path d="M39.2265 55.5006C34.4242 56.7562 30.9896 60.4682 29.8198 64.8655C29.6119 65.6474 30.0771 66.4498 30.8588 66.6577C31.6407 66.8656 32.443 66.4005 32.651 65.6186C33.5623 62.1923 36.2375 59.3103 39.9676 58.3351C40.7503 58.1304 41.2189 57.33 41.0143 56.5473C40.8096 55.7646 40.0093 55.296 39.2265 55.5006Z" fill="#656565"/>
<path d="M63.1438 42.7376C61.2468 43.2336 59.3096 42.4054 58.3146 40.8293C62.8164 38.8253 65.3469 33.791 64.0606 28.8711C63.856 28.0884 63.0554 27.6199 62.2729 27.8245C61.4903 28.0291 61.0216 28.8295 61.2262 29.6122C62.2478 33.5194 59.9001 37.5294 55.9929 38.5509C54.2474 39.0073 52.4023 38.805 50.7971 37.9815C50.0775 37.6122 49.1944 37.8962 48.8251 38.6161C48.4557 39.3359 48.74 40.2188 49.4597 40.5881C51.3079 41.5364 53.3835 41.8948 55.4217 41.6373C56.9026 44.7464 60.433 46.4745 63.8849 45.572C64.6675 45.3674 65.1362 44.567 64.9316 43.7843C64.7269 43.0015 63.9264 42.533 63.1438 42.7376Z" fill="#656565"/>
<path d="M70.5357 59.4277C65.1582 60.8337 61.8539 66.7592 63.3202 72.3671C63.5248 73.1498 64.3253 73.6184 65.1079 73.4137C65.8905 73.2091 66.3592 72.4087 66.1546 71.626C65.1084 67.6248 67.5019 63.2491 71.2767 62.2621C72.0593 62.0575 72.5281 61.2571 72.3234 60.4744C72.1188 59.6917 71.3182 59.2231 70.5357 59.4277Z" fill="#656565"/>
<path d="M69.0203 54.6167C65.8556 51.3623 61.047 49.7958 56.2336 51.0543C55.451 51.2589 54.9823 52.0593 55.1869 52.842C55.3916 53.6247 56.1921 54.0933 56.9747 53.8887C60.7021 52.9141 64.4479 54.1167 66.9197 56.6591C67.4844 57.2399 68.4121 57.2514 68.9911 56.6882C69.5712 56.1242 69.5841 55.1968 69.0203 54.6167Z" fill="#656565"/>
</g>
<g clip-path="url(#clip1)">
<path d="M184.3 51.3129C185.069 51.0633 185.49 50.236 185.24 49.467C184.99 48.6984 184.164 48.2771 183.395 48.5267C182.625 48.7768 182.204 49.604 182.454 50.3726C182.704 51.1416 183.531 51.563 184.3 51.3129Z" fill="#656565"/>
<path d="M176.328 59.9538L180.888 73.9858C181.871 77.0167 185.161 78.7605 188.272 77.7477C191.349 76.7461 193.035 73.4441 192.032 70.3641L189.316 62.0044L193.495 60.6461C194.265 60.3953 194.686 59.5693 194.436 58.8002L193.258 55.177C193.489 55.1811 195.011 55.2049 221.847 55.6249C225.068 56.1286 227.716 53.0509 226.699 49.9246L223.69 40.6649L227.712 36.7023C228.107 36.3124 228.249 35.7336 228.077 35.2057L226.266 29.6333C226.095 29.1055 225.638 28.7206 225.091 28.6378L219.508 27.7973L216.167 17.5172C215.683 16.028 214.482 14.9333 212.955 14.5889C212.936 14.5845 212.919 14.5807 212.9 14.5767C211.42 14.2623 209.92 14.7135 208.86 15.7897L185.076 35.6575L171.414 40.0975C166.041 41.8428 163.079 47.6306 164.832 53.0187C166.433 57.9451 171.407 60.806 176.328 59.9538ZM189.247 71.2703C189.747 72.8075 188.906 74.4599 187.365 74.9613C185.818 75.4651 184.168 74.6032 183.674 73.0808L179.146 59.1481L184.719 57.337C189.959 73.462 189.162 71.012 189.247 71.2703ZM188.411 59.2176L187.505 56.4314L190.291 55.5259L191.197 58.3121L188.411 59.2176ZM223.76 31.3998L225.011 35.2504L222.677 37.5495L220.52 30.9121L223.76 31.3998ZM210.923 17.87C211.441 17.3226 212.065 17.3873 212.311 17.4466C212.555 17.5014 213.148 17.707 213.38 18.4221L223.913 50.8302C224.256 51.8853 223.345 52.9266 222.251 52.7222C222.055 52.6851 221.957 52.7013 221.437 52.6884L210.295 18.4077C210.766 18.0106 210.824 17.9748 210.923 17.87ZM207.872 20.4317L218.34 52.64L192.301 52.2318L187.497 37.4519L207.872 20.4317ZM167.618 52.1131C167.221 50.8908 167.151 49.5843 167.416 48.3339C167.959 45.7783 169.838 43.6903 172.32 42.8837L184.858 38.8087L189.386 52.7397L176.848 56.8153C173.007 58.063 168.867 55.9538 167.618 52.1131Z" fill="#656565"/>
<path d="M179.668 51.2776C179.418 50.5084 178.591 50.0871 177.822 50.3373L175.036 51.2428C174.268 51.4927 173.44 51.0704 173.19 50.3025C172.94 49.5333 172.113 49.112 171.344 49.3622C170.575 49.6123 170.154 50.4389 170.404 51.2081C171.149 53.5016 173.627 54.7809 175.942 54.029L178.728 53.1235C179.497 52.8733 179.918 52.0473 179.668 51.2776Z" fill="#656565"/>
<path d="M243.96 24.3799L235.031 27.1264C234.258 27.3646 233.824 28.1843 234.062 28.9574C234.299 29.7296 235.118 30.1651 235.893 29.9267L244.821 27.18C245.594 26.9419 246.028 26.1221 245.79 25.3491C245.552 24.5756 244.733 24.1416 243.96 24.3799Z" fill="#656565"/>
<path d="M239.968 39.0423L234.747 36.3828C234.026 36.0155 233.144 36.3019 232.777 37.0229C232.409 37.744 232.696 38.6257 233.417 38.993L238.639 41.6526C239.364 42.0225 240.244 41.728 240.609 41.0123C240.976 40.2913 240.689 39.409 239.968 39.0423Z" fill="#656565"/>
<path d="M230.316 16.0396L227.655 21.2608C227.288 21.9818 227.574 22.8634 228.295 23.2313C229.016 23.5979 229.898 23.3126 230.266 22.5911L232.926 17.3698C233.294 16.6488 233.007 15.7667 232.286 15.3994C231.566 15.0322 230.684 15.3186 230.316 16.0396Z" fill="#656565"/>
</g>
<defs>
<clipPath id="clip0">
<rect width="75" height="75" fill="white" transform="translate(0 18.9717) rotate(-14.6524)"/>
</clipPath>
<clipPath id="clip1">
<rect width="75" height="75" fill="white" transform="translate(174.484 0.970703) rotate(11.9952)"/>
</clipPath>
</defs>
</svg>
