<svg width="75" height="75" viewBox="0 0 75 75" fill="none" xmlns="http://www.w3.org/2000/svg">
<g clip-path="url(#clip0)">
<path d="M70.7412 31.9532C69.5836 31.1021 68.1456 30.039 67.9564 29.3347C67.7509 28.565 68.4846 26.8694 69.0782 25.5097C70.0923 23.1748 71.1423 20.7585 69.9782 18.7433C68.801 16.702 66.1564 16.4053 63.6031 16.1184C62.1455 15.9553 60.3325 15.7532 59.7911 15.2086C59.2465 14.6673 59.0444 12.8542 58.8813 11.3966C58.5944 8.84332 58.2976 6.20202 56.2564 5.02153C54.4825 3.99115 51.8542 4.89115 49.49 5.92153C48.1824 6.48892 46.8194 7.03018 45.6618 7.04332C44.9575 6.85745 43.8977 5.4162 43.0433 4.25849C41.5728 2.26299 39.9064 0 37.4999 0C35.0966 0 33.4272 2.26299 31.9564 4.25543C31.1021 5.41299 30.0422 6.85439 29.0444 7.07603C28.1672 7.07603 26.8172 6.48908 25.5097 5.92168C23.1391 4.8913 20.5075 4.00108 18.7467 5.02169C16.7021 6.20217 16.4054 8.84347 16.1184 11.3967C15.9586 12.8543 15.7532 14.6641 15.2118 15.2087C14.6672 15.7534 12.8542 15.9554 11.3998 16.1185C8.84332 16.4054 6.19865 16.7055 5.02153 18.7435C3.8574 20.7555 4.90735 23.1718 5.92153 25.5098C6.51506 26.8696 7.25197 28.5652 7.04653 29.3348C6.85745 30.0392 5.41605 31.1023 4.2617 31.9533C2.26299 33.4239 0 35.0934 0 37.4999C0 39.9064 2.26299 41.5761 4.25864 43.0467C5.4162 43.8977 6.85424 44.9608 7.04347 45.6652C7.24891 46.4348 6.51521 48.1304 5.92168 49.4902C4.9075 51.825 3.85756 54.2413 5.02169 56.2565C6.19881 58.2979 8.84347 58.5946 11.3967 58.8815C12.8543 59.0446 14.6673 59.2467 15.2087 59.7913C15.7534 60.3325 15.9554 62.1457 16.1185 63.6033C16.4054 66.1565 16.7023 68.7978 18.7435 69.9783C20.5109 71.0055 23.1391 70.1087 25.5098 69.0783C26.8175 68.5109 28.1543 67.937 29.338 67.9565C30.0424 68.1424 31.1021 69.5836 31.9566 70.7414C33.4272 72.737 35.0936 75 37.5001 75C39.9034 75 41.5729 72.737 43.0402 70.7446C43.8945 69.587 44.9544 68.1456 45.9522 67.924C46.8327 67.924 48.1827 68.5109 49.487 69.0783C51.8609 70.1121 54.4891 71.0023 56.25 69.9815C58.2945 68.801 58.5912 66.1597 58.8783 63.6033C59.038 62.1457 59.2434 60.3359 59.7848 59.7913C60.3295 59.2467 62.1425 59.0446 63.5969 58.8815C66.1533 58.5946 68.798 58.2945 69.9751 56.2565C71.1424 54.2445 70.0925 51.8282 69.0751 49.4902C68.4816 48.1304 67.7479 46.438 67.9533 45.6652C68.1424 44.9608 69.5838 43.8977 70.7382 43.0467C72.737 41.5761 75.0002 39.9064 75.0002 37.4999C75.0002 35.0934 72.7369 33.4239 70.7412 31.9532ZM68.8108 40.4151C67.0793 41.6901 65.2891 43.0075 64.8065 44.8141C64.3076 46.6858 65.2142 48.7695 66.0913 50.7847C66.6521 52.076 67.5 54.026 67.1608 54.6163C66.8054 55.2326 64.663 55.4739 63.2412 55.6337C61.076 55.8782 58.8358 56.1294 57.4858 57.4794C56.1358 58.8294 55.8846 61.0696 55.6434 63.2347C55.4837 64.6532 55.2424 66.7988 54.6228 67.1544C54.5282 67.2098 54.3717 67.2228 54.2577 67.2228C53.4098 67.2228 52.0794 66.6424 50.7914 66.0848C48.7696 65.2076 46.5588 64.3338 44.824 64.8033C43.0143 65.2859 41.6968 67.0761 40.4187 68.8076C39.5578 69.975 38.2567 71.7392 37.5002 71.7392C36.7438 71.7392 35.4393 69.9751 34.5818 68.8076C33.3069 67.0793 31.9894 65.2891 30.1796 64.8065C29.8243 64.7119 29.4427 64.663 29.0416 64.663C27.4862 64.663 25.82 65.3869 24.209 66.0913C22.9243 66.6489 21.5939 67.2293 20.7428 67.2293C20.6286 67.2293 20.4721 67.2163 20.3776 67.1608C19.7581 66.802 19.52 64.6596 19.3602 63.2412C19.1157 61.076 18.8645 58.8358 17.5145 57.4858C16.1677 56.1358 13.9243 55.8846 11.7591 55.6401C10.3439 55.4804 8.19828 55.239 7.8429 54.6227C7.5005 54.0357 8.35159 52.0824 8.91241 50.7911C9.78963 48.7759 10.6961 46.6922 10.1971 44.8205C9.71122 43.014 7.921 41.6967 6.19285 40.4216C5.02551 39.5575 3.26128 38.2564 3.26128 37.4998C3.26128 36.7431 5.02535 35.4422 6.19285 34.578C7.92437 33.303 9.71458 31.9856 10.1971 30.179C10.6961 28.3073 9.78948 26.2236 8.91241 24.2084C8.3548 22.9171 7.50371 20.9672 7.8429 20.3769C8.20164 19.7606 10.344 19.5192 11.7625 19.3627C13.9277 19.1181 16.1679 18.867 17.5179 17.517C18.8679 16.167 19.119 13.9268 19.3636 11.7616C19.5201 10.3431 19.7615 8.20072 20.381 7.84198C20.4756 7.78649 20.6321 7.7735 20.7461 7.7735C21.594 7.7735 22.9245 8.35388 24.2092 8.91486C26.231 9.79208 28.4385 10.6692 30.1766 10.1964C31.9864 9.71382 33.3038 7.9236 34.582 6.19208C35.4428 5.02474 36.7439 3.26051 37.5004 3.26051C38.2569 3.26051 39.5613 5.02459 40.4222 6.18872C41.6971 7.91703 43.0146 9.70725 44.8243 10.1898C46.5461 10.6496 48.7699 9.78872 50.7917 8.90828C52.0765 8.35067 53.4069 7.77029 54.258 7.77029C54.3722 7.77029 54.5287 7.78328 54.6231 7.83877C55.2427 8.19752 55.4808 10.3399 55.6405 11.7584C55.8851 13.9235 56.1362 16.1638 57.4862 17.5138C58.833 18.8638 61.0765 19.1149 63.2416 19.3595C64.6569 19.5192 66.8025 19.7606 67.1579 20.3769C67.5003 20.9638 66.6492 22.9171 66.0884 24.2084C65.2111 26.2236 64.3047 28.3073 64.8036 30.179C65.2895 31.9856 67.0798 33.3029 68.8079 34.578C69.9753 35.4421 71.7395 36.7431 71.7395 37.4998C71.7395 38.2564 69.975 39.5576 68.8108 40.4151Z" fill="#656565"/>
<path d="M27.7178 29.348C26.8178 29.348 26.0873 30.0785 26.0873 30.9785V39.1306L19.2395 30.0002C18.8188 29.4394 18.0819 29.2078 17.4199 29.4328C16.7547 29.6546 16.3047 30.2773 16.3047 30.9785V44.0219C16.3047 44.9219 17.0352 45.6524 17.9352 45.6524C18.8352 45.6524 19.5657 44.9219 19.5657 44.0219V35.8698L26.4135 45.0001C26.7265 45.4176 27.2157 45.6524 27.7178 45.6524C27.8906 45.6524 28.0634 45.6262 28.233 45.5675C28.8983 45.3457 29.3483 44.723 29.3483 44.0219V30.9785C29.3483 30.0785 28.6178 29.348 27.7178 29.348Z" fill="#656565"/>
<path d="M40.7617 42.3911H35.8704V32.6085H40.7617C41.6617 32.6085 42.3921 31.878 42.3921 30.978C42.3921 30.078 41.6617 29.3477 40.7617 29.3477H34.2399C33.3399 29.3477 32.6094 30.0781 32.6094 30.9781V44.0216C32.6094 44.9216 33.3399 45.652 34.2399 45.652H40.7617C41.6617 45.652 42.3921 44.9216 42.3921 44.0216C42.3921 43.1216 41.6617 42.3911 40.7617 42.3911Z" fill="#656565"/>
<path d="M40.7617 35.8691H34.2399C33.3399 35.8691 32.6094 36.5996 32.6094 37.4996C32.6094 38.3996 33.3399 39.13 34.2399 39.13H40.7617C41.6617 39.13 42.3921 38.3995 42.3921 37.4995C42.3921 36.5995 41.6617 35.8691 40.7617 35.8691Z" fill="#656565"/>
<path d="M60.7163 29.3961C59.8359 29.1776 58.9555 29.7059 58.7403 30.583L56.8392 38.1938L55.3491 33.7232C54.9056 32.3928 52.7012 32.3928 52.2545 33.7232L50.7644 38.1938L48.8633 30.583C48.6449 29.7057 47.7449 29.1743 46.8873 29.3961C46.0134 29.6145 45.4851 30.4983 45.7004 31.3722L48.9612 44.4156C49.1373 45.1167 49.7568 45.6221 50.4807 45.6482C51.2992 45.6807 51.8632 45.221 52.0916 44.5362L53.8036 39.3937L55.5155 44.5362C55.7405 45.2046 56.3634 45.6514 57.0644 45.6514C57.0839 45.6514 57.1067 45.6514 57.1231 45.6482C57.847 45.6221 58.4665 45.1199 58.6426 44.4156L61.9034 31.3722C62.1217 30.4983 61.5934 29.6145 60.7163 29.3961Z" fill="#656565"/>
</g>
<defs>
<clipPath id="clip0">
<rect width="75" height="75" fill="white"/>
</clipPath>
</defs>
</svg>
