<svg width="50" height="50" viewBox="0 0 50 50" fill="none" xmlns="http://www.w3.org/2000/svg">
<g clip-path="url(#clip0)">
<path d="M36.5891 18.6008C37.2391 19.6299 38.7829 19.4609 39.2018 18.3261L40.9568 13.5737L45.8667 12.3251C47.0412 12.0265 47.3646 10.5063 46.4129 9.75548L42.4354 6.61783L42.7651 1.56239C42.8441 0.353072 41.4984 -0.424236 40.49 0.248878L36.2767 3.06223L31.5707 1.18643C30.4454 0.737528 29.2898 1.77713 29.6184 2.94417L30.9921 7.82061L27.7539 11.7167C26.9792 12.6484 27.6109 14.0687 28.8223 14.1166L33.8845 14.3171L36.5891 18.6008ZM34.0208 7.76749L33.243 5.00657L35.9074 6.06854C36.3552 6.24714 36.8621 6.19383 37.2632 5.92606L39.6487 4.33326L39.462 7.19544C39.4305 7.67657 39.6379 8.14227 40.0164 8.4408L42.2685 10.2172L39.4886 10.9241C39.0213 11.0429 38.6425 11.384 38.4755 11.8362L37.4819 14.5269L35.9506 12.1017C35.6932 11.6941 35.2517 11.4391 34.77 11.4201L31.9039 11.3066L33.7373 9.10073C34.0455 8.73014 34.1514 8.23153 34.0208 7.76749Z" fill="#656565"/>
<path d="M48.5349 23.6338H36.7191C35.9101 23.6338 35.2543 24.2896 35.2543 25.0986V29.4929H25.0008C24.1919 29.4929 23.5361 30.1487 23.5361 30.9577V35.352H13.2826C12.4737 35.352 11.8178 36.0078 11.8178 36.8168V41.2111H1.46673C0.657783 41.2111 0.00195312 41.867 0.00195312 42.6759V48.535C0.00195312 49.344 0.657783 49.9998 1.46673 49.9998H48.5349C49.3439 49.9998 49.9997 49.344 49.9997 48.535V25.0986C49.9997 24.2896 49.3439 23.6338 48.5349 23.6338ZM2.93151 44.1407H11.8178V47.0702H2.93151V44.1407ZM14.7474 38.2816H23.5361V47.0702H14.7474V38.2816ZM26.4656 32.4225H35.2543V47.0702H26.4656V32.4225ZM47.0702 47.0702H38.1838V26.5633H47.0702V47.0702Z" fill="#656565"/>
<path d="M29.3954 19.2392C29.3954 20.0469 28.7383 20.704 27.9307 20.704H22.0715C19.6485 20.704 17.6772 22.6753 17.6772 25.0983C17.6772 25.906 17.0201 26.5631 16.2124 26.5631H10.3533C7.93028 26.5631 5.95898 28.5344 5.95898 30.9574C5.95898 31.7664 6.61481 32.4222 7.42376 32.4222C8.23271 32.4222 8.88854 31.7664 8.88854 30.9574C8.88854 30.1497 9.54564 29.4926 10.3533 29.4926H16.2124C18.6355 29.4926 20.6068 27.5213 20.6068 25.0983C20.6068 24.2906 21.2639 23.6335 22.0715 23.6335H27.9307C30.3537 23.6335 32.325 21.6622 32.325 19.2392C32.325 18.4302 31.6692 17.7744 30.8602 17.7744C30.0513 17.7744 29.3954 18.4302 29.3954 19.2392Z" fill="#656565"/>
</g>
<defs>
<clipPath id="clip0">
<rect width="50" height="50" fill="white"/>
</clipPath>
</defs>
</svg>
