<svg width="50" height="50" viewBox="0 0 50 50" fill="none" xmlns="http://www.w3.org/2000/svg">
<g clip-path="url(#clip0)">
<path d="M42.6736 7.32532C32.9062 -2.44229 17.0953 -2.44386 7.32633 7.32532C-2.44138 17.0929 -2.44284 32.9037 7.32633 42.6727C17.0937 52.4403 32.9047 52.4418 42.6736 42.6727C52.4414 32.9051 52.4427 17.0944 42.6736 7.32532ZM41.629 39.1098C40.4612 38.0656 39.212 37.1414 37.8953 36.345C38.7656 33.3387 39.2812 30.0306 39.4031 26.5918H46.7515C46.4192 31.227 44.6383 35.5751 41.629 39.1098ZM3.24841 26.5918H10.5968C10.7187 30.0306 11.2343 33.3387 12.1046 36.345C10.7879 37.1414 9.53868 38.0656 8.37089 39.1098C5.36163 35.5751 3.58076 31.227 3.24841 26.5918ZM8.37099 10.8882C9.53878 11.9325 10.788 12.8566 12.1047 13.6531C11.2344 16.6593 10.7188 19.9674 10.5969 23.4062H3.24841C3.58076 18.7712 5.36163 14.423 8.37099 10.8882ZM23.4072 13.9823C20.8096 13.7965 18.3049 13.1567 15.9828 12.1012C17.3333 8.62367 19.8229 4.45276 23.4072 3.41913V13.9823ZM23.4072 17.1738V23.4063H13.7838C13.894 20.4974 14.3062 17.7041 14.9917 15.1482C17.6304 16.3018 20.4683 16.9907 23.4072 17.1738ZM23.4072 26.5918V32.8243C20.4683 33.0075 17.6304 33.6964 14.9917 34.8499C14.3062 32.2941 13.894 29.5008 13.7838 26.5918H23.4072ZM23.4072 36.0159V46.5789C19.8231 45.5453 17.3335 41.3749 15.9828 37.8969C18.3049 36.8415 20.8096 36.2016 23.4072 36.0159ZM26.5927 36.0159C29.1904 36.2016 31.6951 36.8415 34.0171 37.8969C32.6666 41.3746 30.1771 45.5453 26.5927 46.5789V36.0159ZM26.5927 32.8243V26.5918H36.2162C36.106 29.5008 35.6938 32.2941 35.0083 34.8499C32.3696 33.6964 29.5316 33.0075 26.5927 32.8243ZM26.5927 23.4063V17.1738C29.5316 16.9907 32.3696 16.3018 35.0083 15.1482C35.6938 17.7041 36.106 20.4974 36.2162 23.4063H26.5927ZM26.5927 13.9823V3.41923C30.1771 4.45286 32.6667 8.62377 34.0171 12.1013C31.6951 13.1567 29.1904 13.7965 26.5927 13.9823ZM33.747 5.00943C35.7859 5.90226 37.6881 7.11289 39.3932 8.61499C38.5816 9.33062 37.7251 9.9795 36.8309 10.5598C36.0367 8.59342 35.0222 6.68248 33.747 5.00943ZM13.169 10.5598C12.2747 9.9795 11.4184 9.33062 10.6067 8.61499C12.3118 7.11289 14.214 5.90226 16.2528 5.00943C14.9777 6.68268 13.9632 8.59362 13.169 10.5598ZM13.1691 39.4384C13.9632 41.4046 14.9779 43.3157 16.2529 44.9887C14.2141 44.0959 12.3119 42.8853 10.6068 41.3832C11.4184 40.6675 12.2748 40.0186 13.1691 39.4384ZM36.8309 39.4384C37.7251 40.0186 38.5816 40.6675 39.3932 41.3831C37.6881 42.8852 35.7859 44.0958 33.747 44.9886C35.0221 43.3158 36.0367 41.4047 36.8309 39.4384ZM39.4032 23.4063C39.2813 19.9675 38.7657 16.6593 37.8954 13.6532C39.2121 12.8567 40.4612 11.9326 41.6291 10.8883C44.6384 14.423 46.4192 18.7712 46.7516 23.4063H39.4032Z" fill="#656565"/>
</g>
<defs>
<clipPath id="clip0">
<rect width="50" height="50" fill="white"/>
</clipPath>
</defs>
</svg>
