<svg width="75" height="75" viewBox="0 0 75 75" fill="none" xmlns="http://www.w3.org/2000/svg">
<path d="M51.8419 27.9209H28.3492C27.7032 27.9209 27.1797 28.4446 27.1797 29.0906C27.1797 29.7366 27.7034 30.2601 28.3492 30.2601H51.8418C52.4876 30.2601 53.0115 29.7364 53.0115 29.0906C53.0115 28.4447 52.4878 27.9209 51.8419 27.9209Z" fill="#656565"/>
<path d="M53.0115 33.6871C53.0115 33.0413 52.4878 32.5176 51.8418 32.5176H28.3492C27.7032 32.5176 27.1797 33.0413 27.1797 33.6871C27.1797 34.333 27.7034 34.8568 28.3492 34.8568H51.8418C52.4878 34.8566 53.0115 34.333 53.0115 33.6871Z" fill="#656565"/>
<path d="M51.0966 42.1031C51.0966 41.4573 50.5729 40.9336 49.9271 40.9336H28.3492C27.7032 40.9336 27.1797 41.4573 27.1797 42.1031C27.1797 42.749 27.7034 43.2727 28.3492 43.2727H49.9269C50.5729 43.2727 51.0966 42.749 51.0966 42.1031Z" fill="#656565"/>
<path d="M48.8957 46.6988C48.8957 46.053 48.372 45.5293 47.7262 45.5293H28.3492C27.7032 45.5293 27.1797 46.053 27.1797 46.6988C27.1797 47.3447 27.7034 47.8685 28.3492 47.8685H47.726C48.372 47.8685 48.8957 47.3448 48.8957 46.6988Z" fill="#656565"/>
<path d="M28.3492 53.9443C27.7032 53.9443 27.1797 54.468 27.1797 55.1139C27.1797 55.7597 27.7034 56.2835 28.3492 56.2835H43.6963C44.3421 56.2835 44.8658 55.7599 44.8658 55.1139C44.8658 54.468 44.3421 53.9443 43.6963 53.9443H28.3492Z" fill="#656565"/>
<path d="M41.4953 58.541H28.3492C27.7032 58.541 27.1797 59.0647 27.1797 59.7105C27.1797 60.3564 27.7034 60.8801 28.3492 60.8801H41.4953C42.1412 60.8801 42.6649 60.3564 42.6649 59.7105C42.665 59.0647 42.1413 58.541 41.4953 58.541Z" fill="#656565"/>
<path d="M67.463 25.7808C65.1451 24.6713 62.3564 25.6538 61.246 27.9716L43.6229 64.7744C43.3805 65.2814 43.2426 65.8225 43.2139 66.3825L42.8738 72.9327C42.8325 73.7271 43.2694 74.4626 43.9871 74.8063C44.7016 75.1483 45.5484 75.032 46.1448 74.4991L50.1976 70.876H55.888C58.7842 70.876 61.1404 68.5198 61.1404 65.6236V49.7769C62.1006 47.7717 68.5831 34.2342 69.6541 31.9977C70.7638 29.6799 69.7811 26.8908 67.463 25.7808ZM65.4536 27.6631C65.7894 27.6631 66.1302 27.7362 66.4528 27.8907C67.0122 28.1585 67.4337 28.6281 67.6398 29.213C67.8459 29.7978 67.8117 30.428 67.544 30.9874L66.6114 32.9346L62.4233 30.9291L63.3558 28.9819C63.7544 28.1499 64.5872 27.6631 65.4536 27.6631ZM64.8945 36.5204L60.7064 34.5149L61.4132 33.0391L65.6013 35.0446L64.8945 36.5204ZM50.4261 66.735L46.2381 64.7295L59.6961 36.6247L63.8842 38.6301C63.4585 39.5192 50.7338 66.0922 50.4261 66.735ZM45.2565 72.1553L45.525 66.9818L49.1186 68.7026L45.2565 72.1553ZM58.801 65.6235C58.801 67.2298 57.4942 68.5366 55.8879 68.5366H52.1571L58.801 54.6619V65.6235Z" fill="#656565"/>
<path d="M39.1583 68.5367H10.1391C8.53271 68.5367 7.22593 67.2299 7.22593 65.6235V15.9152C7.22593 15.7384 7.2416 15.5641 7.27222 15.3937H16.5795C18.6201 15.3937 20.2803 13.7336 20.2803 11.6931V2.3855C20.4507 2.35488 20.625 2.33921 20.8018 2.33921H55.8889C57.4953 2.33921 58.8021 3.646 58.8021 5.25234V26.7639C58.8021 27.4097 59.3257 27.9335 59.9716 27.9335C60.6174 27.9335 61.1411 27.4099 61.1411 26.7639V5.25234C61.1414 2.3562 58.7852 0 55.8891 0H20.802C19.3989 0 18.08 0.546387 17.088 1.53838L6.4251 12.2013C5.43311 13.1933 4.88672 14.5122 4.88672 15.9151V65.6235C4.88672 68.5197 7.24292 70.8759 10.1391 70.8759H39.1583C39.8042 70.8759 40.3279 70.3522 40.3279 69.7063C40.328 69.0603 39.8042 68.5367 39.1583 68.5367ZM17.9413 3.99331V11.693C17.9413 12.4437 17.3304 13.0544 16.5797 13.0544H8.88018L17.9413 3.99331Z" fill="#656565"/>
<path d="M23.2959 28.8701C23.2959 27.3354 22.0474 26.0869 20.5125 26.0869H15.799C14.2643 26.0869 13.0156 27.3354 13.0156 28.8701V33.5838C13.0156 35.1186 14.2641 36.367 15.799 36.367H20.5125C22.0473 36.367 23.2959 35.1186 23.2959 33.5838V28.8701ZM20.9567 33.5838C20.9567 33.8288 20.7575 34.0278 20.5125 34.0278H15.799C15.5541 34.0278 15.3548 33.8286 15.3548 33.5838V28.8701C15.3548 28.6252 15.5541 28.4261 15.799 28.4261H20.5125C20.7575 28.4261 20.9567 28.6253 20.9567 28.8701V33.5838Z" fill="#656565"/>
<path d="M23.2959 42.0441C23.2959 40.5092 22.0474 39.2607 20.5125 39.2607H15.799C14.2643 39.2607 13.0156 40.5092 13.0156 42.0441V46.7577C13.0156 48.2925 14.2641 49.541 15.799 49.541H20.5125C22.0473 49.541 23.2959 48.2925 23.2959 46.7577V42.0441ZM20.9567 46.7577C20.9567 47.0026 20.7575 47.2018 20.5125 47.2018H15.799C15.5541 47.2018 15.3548 47.0024 15.3548 46.7577V42.0441C15.3548 41.7992 15.5541 41.6 15.799 41.6H20.5125C20.7575 41.6 20.9567 41.7993 20.9567 42.0441V46.7577Z" fill="#656565"/>
<path d="M20.5125 52.4346H15.799C14.2643 52.4346 13.0156 53.6831 13.0156 55.2178V59.9315C13.0156 61.4662 14.2641 62.7147 15.799 62.7147H20.5125C22.0473 62.7147 23.2959 61.4662 23.2959 59.9315V55.2178C23.2959 53.6831 22.0474 52.4346 20.5125 52.4346ZM20.9567 59.9315C20.9567 60.1764 20.7575 60.3755 20.5125 60.3755H15.799C15.5541 60.3755 15.3548 60.1763 15.3548 59.9315V55.2178C15.3548 54.9729 15.5541 54.7738 15.799 54.7738H20.5125C20.7575 54.7738 20.9567 54.973 20.9567 55.2178V59.9315Z" fill="#656565"/>
<path d="M35.7442 22.0238C37.4507 23.5464 39.7 24.4729 42.1617 24.4729C44.6236 24.4729 46.8732 23.5461 48.5799 22.0232C48.6376 21.9796 48.6908 21.931 48.739 21.8781C50.6286 20.1153 51.8119 17.6047 51.8119 14.8228C51.8119 9.50176 47.4829 5.17285 42.1618 5.17285C36.8408 5.17285 32.5117 9.50176 32.5117 14.8228C32.5117 17.6044 33.6947 20.1147 35.5839 21.8775C35.6323 21.9308 35.6859 21.9799 35.7442 22.0238ZM37.8421 20.7178C38.357 19.6487 39.2651 18.79 40.3665 18.3415C40.924 18.608 41.5347 18.7468 42.1617 18.7468C42.7888 18.7468 43.3995 18.608 43.957 18.3415C45.0584 18.79 45.9665 19.6486 46.4812 20.7176C45.2702 21.6075 43.7762 22.1337 42.1615 22.1337C40.5471 22.1337 39.0531 21.6075 37.8421 20.7178ZM43.1877 16.0934C43.186 16.0946 43.1843 16.0956 43.1827 16.0968C42.8809 16.3002 42.528 16.4076 42.1617 16.4076C41.7943 16.4076 41.4401 16.2994 41.1378 16.0947C40.6324 15.7528 40.3306 15.1852 40.3306 14.5763C40.3306 13.5666 41.152 12.7452 42.1617 12.7452C43.1714 12.7452 43.9929 13.5666 43.9929 14.5763C43.9929 15.1843 43.692 15.7514 43.1877 16.0934ZM42.1617 7.51206C46.1929 7.51206 49.4726 10.7916 49.4726 14.8228C49.4726 16.3587 48.9965 17.7853 48.1842 18.963C47.5818 18.0087 46.761 17.2128 45.7863 16.6398C46.139 16.0203 46.3321 15.3116 46.3321 14.5764C46.3321 12.2769 44.4612 10.4062 42.1617 10.4062C39.8622 10.4062 37.9914 12.2769 37.9914 14.5764C37.9914 15.3116 38.1845 16.0203 38.5371 16.6398C37.5624 17.213 36.7416 18.0087 36.1391 18.963C35.3269 17.7852 34.8508 16.3585 34.8508 14.8228C34.8509 10.7916 38.1304 7.51206 42.1617 7.51206Z" fill="#656565"/>
</svg>
