<svg width="50" height="50" viewBox="0 0 50 50" fill="none" xmlns="http://www.w3.org/2000/svg">
<rect width="50" height="50" rx="5" fill="#00ACEE"/>
<g clip-path="url(#clip0)">
<path d="M39.3202 15.5534C38.8489 15.7624 38.3643 15.9388 37.8692 16.082C38.4554 15.4191 38.9023 14.6391 39.1751 13.7856C39.2363 13.5943 39.1729 13.3848 39.0156 13.2597C38.8586 13.1345 38.6403 13.1195 38.4674 13.222C37.416 13.8456 36.2816 14.2937 35.0921 14.5558C33.894 13.385 32.2666 12.7188 30.5843 12.7188C27.0331 12.7188 24.1441 15.6077 24.1441 19.1588C24.1441 19.4385 24.1618 19.7166 24.1968 19.9908C19.7902 19.6039 15.6934 17.438 12.8802 13.9872C12.78 13.8642 12.6255 13.7979 12.4674 13.8106C12.3091 13.8229 12.167 13.9122 12.0871 14.0493C11.5165 15.0284 11.2148 16.1481 11.2148 17.2875C11.2148 18.8392 11.7689 20.3116 12.7475 21.462C12.45 21.3589 12.1612 21.2301 11.8856 21.0771C11.7376 20.9948 11.557 20.996 11.41 21.0803C11.2629 21.1646 11.1707 21.3196 11.1668 21.4891C11.1661 21.5176 11.1661 21.5462 11.1661 21.5751C11.1661 23.8914 12.4128 25.9768 14.3188 27.1134C14.155 27.0971 13.9914 27.0734 13.8288 27.0423C13.6612 27.0103 13.4888 27.069 13.3758 27.1968C13.2626 27.3246 13.2251 27.5026 13.2773 27.6652C13.9828 29.8678 15.7991 31.4879 17.9949 31.9818C16.1737 33.1225 14.0911 33.72 11.9047 33.72C11.4485 33.72 10.9897 33.6932 10.5407 33.6401C10.3176 33.6135 10.1043 33.7453 10.0284 33.9574C9.95241 34.1696 10.0329 34.4062 10.2227 34.5279C13.0314 36.3287 16.279 37.2806 19.6143 37.2806C26.1712 37.2806 30.273 34.1887 32.5592 31.5948C35.4102 28.3605 37.0453 24.0795 37.0453 19.8496C37.0453 19.6729 37.0426 19.4945 37.0372 19.3166C38.162 18.4692 39.1304 17.4436 39.9184 16.2647C40.0381 16.0857 40.0252 15.8491 39.8865 15.6843C39.748 15.5194 39.5172 15.4661 39.3202 15.5534Z" fill="white"/>
</g>
<defs>
<clipPath id="clip0">
<rect width="30" height="30" fill="white" transform="translate(10 10)"/>
</clipPath>
</defs>
</svg>
