<svg width="50" height="50" viewBox="0 0 50 50" fill="none" xmlns="http://www.w3.org/2000/svg">
<rect width="50" height="50" rx="5" fill="#597DA3"/>
<g clip-path="url(#clip0)">
<path fill-rule="evenodd" clip-rule="evenodd" d="M35.8193 27.3057C36.8144 28.2772 37.8647 29.1914 38.7573 30.2609C39.1515 30.7362 39.5248 31.2267 39.8104 31.7783C40.215 32.5624 39.8485 33.4252 39.1454 33.472L34.775 33.4701C33.6477 33.5636 32.7485 33.1098 31.9924 32.3391C31.3873 31.7228 30.8269 31.0668 30.2451 30.4297C30.0066 30.1692 29.7569 29.9242 29.4586 29.7305C28.862 29.3432 28.3441 29.4618 28.0032 30.0841C27.6559 30.717 27.5772 31.4178 27.5431 32.1231C27.4962 33.1523 27.1852 33.4229 26.1514 33.47C23.9421 33.5742 21.8454 33.2399 19.8976 32.1254C18.1803 31.1429 16.8487 29.7558 15.6896 28.1856C13.4329 25.1279 11.7047 21.768 10.1515 18.314C9.80189 17.5358 10.0576 17.1181 10.9162 17.1033C12.342 17.0756 13.7676 17.0776 15.195 17.1014C15.7745 17.1098 16.1581 17.4422 16.3819 17.9896C17.1533 19.8864 18.0971 21.691 19.2819 23.3636C19.5974 23.809 19.9192 24.2543 20.3773 24.5677C20.8841 24.9148 21.27 24.7998 21.5085 24.2352C21.6598 23.8772 21.726 23.4916 21.7601 23.1082C21.8731 21.789 21.8879 20.4722 21.6898 19.1577C21.5682 18.3373 21.1061 17.8062 20.2875 17.651C19.8698 17.5718 19.932 17.4164 20.1342 17.1779C20.4855 16.7667 20.8159 16.5107 21.4745 16.5107H26.4139C27.1915 16.6642 27.3642 17.0135 27.4706 17.796L27.4748 23.2825C27.4664 23.5854 27.6261 24.4843 28.1717 24.6847C28.6084 24.8275 28.8962 24.4781 29.1582 24.2013C30.3408 22.9461 31.1848 21.4628 31.9389 19.9268C32.2735 19.2514 32.5612 18.55 32.8401 17.8492C33.0467 17.3291 33.3709 17.0733 33.9566 17.0846L38.7105 17.0888C38.8514 17.0888 38.994 17.0909 39.1305 17.1143C39.9316 17.2508 40.1511 17.5954 39.9037 18.3776C39.5139 19.6049 38.7554 20.6276 38.0138 21.6551C37.221 22.752 36.3731 23.8114 35.587 24.9149C34.8646 25.9226 34.922 26.4305 35.8193 27.3057Z" fill="white"/>
</g>
<defs>
<clipPath id="clip0">
<rect width="30" height="30" fill="white" transform="translate(10 10)"/>
</clipPath>
</defs>
</svg>
