<svg width="223" height="40" viewBox="0 0 223 40" fill="none" xmlns="http://www.w3.org/2000/svg">
<g clip-path="url(#clip0)">
<path d="M72.7102 7.68312C72.7091 7.68312 72.7091 7.68312 72.7102 7.68312C71.4635 6.97425 70.0202 6.61426 68.4181 6.61426H62.2805C61.7194 6.61426 61.2372 6.80425 60.8483 7.1798C60.4572 7.55868 60.2583 8.04977 60.2583 8.63642V29.4114C60.2583 29.9769 60.455 30.4603 60.8438 30.848C61.2327 31.2358 61.7149 31.4336 62.2805 31.4336C62.8682 31.4336 63.3593 31.2347 63.7382 30.8436C64.1137 30.4558 64.3026 29.9736 64.3026 29.4125V23.1182H68.4181C70.018 23.1182 71.4602 22.7694 72.7046 22.0827C73.9546 21.3927 74.9446 20.4194 75.6468 19.1895C76.3456 17.9628 76.7001 16.5495 76.7001 14.9885C76.7001 13.3685 76.3467 11.9108 75.649 10.6541C74.9479 9.39418 73.9601 8.39421 72.7102 7.68312ZM72.7791 14.9896C72.7791 15.8307 72.5913 16.5851 72.2213 17.2329C71.8513 17.8784 71.3369 18.3928 70.6913 18.7617C70.0436 19.1317 69.2792 19.3195 68.4181 19.3195H64.3026V10.413H68.4181C69.2758 10.413 70.038 10.6097 70.6836 10.9975C71.3302 11.3852 71.8469 11.9252 72.2168 12.6008C72.5902 13.2819 72.7791 14.0852 72.7791 14.9896Z" fill="#1E1E1E"/>
<path d="M90.7007 14.2808C90.0185 13.8297 89.0441 13.6108 87.7197 13.6108C86.4242 13.6108 85.2187 13.9186 84.1354 14.5241C83.7176 14.7575 83.3254 15.033 82.9632 15.3452C82.9021 14.913 82.741 14.563 82.481 14.303C82.1432 13.9664 81.6554 13.7953 81.0299 13.7953C80.4244 13.7953 79.941 13.9708 79.5933 14.3186C79.2455 14.6664 79.0688 15.1497 79.0688 15.7552V29.4726C79.0688 30.1026 79.2477 30.5926 79.5988 30.9292C79.9444 31.2637 80.4266 31.4326 81.0299 31.4326C81.6588 31.4326 82.1499 31.2548 82.4876 30.9026C82.821 30.5559 82.991 30.0737 82.991 29.4715V20.5106C82.991 19.6784 83.2465 19.0129 83.7743 18.4774C84.3154 17.9274 85.0742 17.5441 86.0309 17.3374C87.012 17.1263 88.1397 17.1474 89.3741 17.3974C89.6952 17.4718 90.0019 17.4841 90.283 17.4318C90.583 17.3774 90.8541 17.2463 91.0863 17.0407C91.3307 16.8252 91.4941 16.5252 91.5696 16.1685C91.7018 15.6586 91.6585 14.9152 90.7007 14.2808Z" fill="#1E1E1E"/>
<path d="M105.362 14.8184C104.033 14.0584 102.495 13.6729 100.793 13.6729C99.0685 13.6729 97.5208 14.0584 96.193 14.8184C94.8631 15.5795 93.8031 16.645 93.042 17.985C92.282 19.3227 91.8965 20.8849 91.8965 22.6293C91.8965 24.3537 92.282 25.9058 93.042 27.2436C93.8031 28.5836 94.8631 29.6491 96.193 30.4102C97.5208 31.1702 99.0685 31.5557 100.793 31.5557C102.517 31.5557 104.065 31.1702 105.393 30.4102C106.723 29.648 107.778 28.5824 108.529 27.2414C109.278 25.9047 109.658 24.3526 109.658 22.6293C109.658 20.886 109.273 19.3227 108.513 17.985C107.752 16.6461 106.692 15.5806 105.362 14.8184ZM105.797 22.6304C105.797 23.6792 105.582 24.6126 105.157 25.4059C104.736 26.1914 104.143 26.818 103.396 27.2669C102.65 27.7147 101.773 27.9425 100.792 27.9425C99.8107 27.9425 98.9341 27.7147 98.1874 27.2669C97.4386 26.8169 96.8397 26.1903 96.4086 25.4025C95.9753 24.6103 95.7553 23.6781 95.7553 22.6304C95.7553 21.5826 95.9753 20.6438 96.4097 19.8416C96.8408 19.0449 97.4386 18.4127 98.1874 17.9638C98.9341 17.515 99.8107 17.2883 100.792 17.2883C101.773 17.2883 102.648 17.5161 103.396 17.9638C104.143 18.4127 104.735 19.0438 105.157 19.8382C105.582 20.6416 105.797 21.5804 105.797 22.6304Z" fill="#1E1E1E"/>
<path d="M125.987 13.7964C125.424 13.7964 124.948 13.9808 124.57 14.3453C124.189 14.7141 123.996 15.1997 123.996 15.7874V29.4437C123.996 30.0093 124.188 30.4881 124.564 30.8648C124.942 31.2437 125.421 31.4348 125.987 31.4348C126.574 31.4348 127.06 31.2414 127.429 30.8592C127.793 30.4826 127.978 30.0059 127.978 29.4426V15.7874C127.978 15.2019 127.791 14.7186 127.423 14.3508C127.054 13.9819 126.571 13.7964 125.987 13.7964Z" fill="#1E1E1E"/>
<path d="M125.699 6.75656C124.933 6.5199 124.029 6.3999 123.01 6.3999C120.89 6.3999 119.13 6.72323 117.779 7.36099C116.402 8.01208 115.377 8.94539 114.733 10.1365C114.098 11.3087 113.777 12.7142 113.777 14.313V14.4086H112.883C112.345 14.4086 111.897 14.5708 111.551 14.8897C111.196 15.2174 111.015 15.6541 111.015 16.1852C111.015 16.6763 111.196 17.0907 111.551 17.4185C111.897 17.7385 112.345 17.8996 112.883 17.8996H113.777V29.4415C113.777 29.9837 113.967 30.4548 114.341 30.8426C114.72 31.2348 115.199 31.4325 115.768 31.4325C116.336 31.4325 116.816 31.2337 117.194 30.8426C117.57 30.4548 117.759 29.9837 117.759 29.4415V17.9007H120.493C121.031 17.9007 121.479 17.7385 121.825 17.4196C122.181 17.0907 122.361 16.6763 122.361 16.1863C122.361 15.6563 122.181 15.2208 121.825 14.8908C121.479 14.5719 121.031 14.4097 120.493 14.4097H117.759V14.3141C117.759 12.9808 117.953 11.9442 118.337 11.2331C118.708 10.5453 119.192 10.0665 119.776 9.80981C120.393 9.5387 121.059 9.40093 121.752 9.40093C122.174 9.40093 122.544 9.47871 122.85 9.63204C123.193 9.80314 123.522 10.0065 123.828 10.2365C124.17 10.4931 124.522 10.7209 124.877 10.9142C125.275 11.132 125.731 11.2431 126.232 11.2431C128.044 11.2431 128.315 10.1298 128.315 9.46648C128.315 8.81539 128.064 8.24652 127.569 7.77653C127.113 7.34321 126.484 7.001 125.699 6.75656Z" fill="#1E1E1E"/>
<path d="M140.409 27.5127H139.366C138.842 27.5127 138.407 27.2927 138.039 26.8416C137.649 26.3627 137.46 25.7783 137.46 25.055V17.9018H139.643C140.18 17.9018 140.628 17.7396 140.975 17.4207C141.33 17.0919 141.51 16.6774 141.51 16.1874C141.51 15.6575 141.33 15.2219 140.974 14.8919C140.627 14.573 140.179 14.4108 139.641 14.4108H137.459V10.4176C137.459 9.85317 137.273 9.37985 136.905 9.01097C136.536 8.6432 136.064 8.45654 135.499 8.45654C134.935 8.45654 134.462 8.6432 134.093 9.01097C133.725 9.37874 133.538 9.85206 133.538 10.4176V14.4097H132.553C132.014 14.4097 131.565 14.5719 131.221 14.8908C130.865 15.2197 130.685 15.6552 130.685 16.1863C130.685 16.6763 130.865 17.0919 131.221 17.4196C131.566 17.7396 132.014 17.9007 132.553 17.9007H133.538V25.0539C133.538 26.2438 133.793 27.3327 134.293 28.2893C134.796 29.2526 135.496 30.0248 136.375 30.5837C137.259 31.147 138.265 31.4326 139.366 31.4326H139.918C140.553 31.4326 141.084 31.2537 141.498 30.9015C141.934 30.5315 142.155 30.0504 142.155 29.4715C142.155 28.916 141.989 28.4482 141.663 28.0827C141.323 27.7049 140.901 27.5127 140.409 27.5127Z" fill="#1E1E1E"/>
<path d="M168.852 17.9362C169.469 17.5051 169.984 16.984 170.391 16.3773C170.979 15.5018 171.276 14.5074 171.276 13.4241C171.276 12.1019 170.95 10.9108 170.305 9.88306C169.664 8.86086 168.772 8.05088 167.653 7.47535C166.543 6.90425 165.243 6.61426 163.791 6.61426H156.457C155.896 6.61426 155.413 6.80425 155.025 7.17869C154.632 7.55757 154.435 8.04755 154.435 8.63642V29.4114C154.435 29.9769 154.631 30.4603 155.02 30.848C155.408 31.2369 155.891 31.4336 156.457 31.4336H164.435C166.033 31.4336 167.473 31.1025 168.715 30.448C169.965 29.7914 170.955 28.877 171.657 27.7315C172.361 26.5837 172.717 25.2493 172.717 23.7649C172.717 22.1138 172.271 20.7516 171.389 19.7139C170.715 18.9228 169.864 18.3262 168.852 17.9362ZM158.48 20.2639H164.437C165.316 20.2639 166.098 20.4028 166.759 20.6761C167.396 20.9405 167.902 21.3305 168.263 21.8349C168.618 22.3316 168.798 22.9816 168.798 23.766C168.798 24.6193 168.614 25.3371 168.252 25.8982C167.883 26.4693 167.391 26.8893 166.745 27.1837C166.089 27.4837 165.312 27.6359 164.437 27.6359H158.48V20.2639ZM166.402 15.694C165.734 16.2051 164.857 16.4651 163.792 16.4651H158.48V10.413H163.792C164.858 10.413 165.736 10.6686 166.404 11.1719C167.043 11.6541 167.354 12.3908 167.354 13.4241C167.355 14.4596 167.043 15.2029 166.402 15.694Z" fill="#1E1E1E"/>
<path d="M181.498 27.5126H180.731C180.547 27.5126 180.269 27.4581 179.995 26.987C179.748 26.5648 179.624 26.0071 179.624 25.3293V8.57531C179.624 8.01089 179.437 7.53868 179.069 7.16869C178.7 6.80092 178.227 6.61426 177.663 6.61426C177.098 6.61426 176.625 6.80092 176.257 7.16869C175.889 7.53645 175.703 8.00977 175.703 8.5742V25.3293C175.703 26.4915 175.912 27.537 176.325 28.437C176.743 29.3514 177.337 30.0847 178.093 30.618C178.858 31.158 179.746 31.4325 180.731 31.4325H180.792C181.497 31.4325 182.088 31.2602 182.549 30.9191C183.044 30.5547 183.306 30.0536 183.306 29.4714C183.306 28.9159 183.14 28.4481 182.814 28.0814C182.474 27.7048 182.031 27.5126 181.498 27.5126Z" fill="#1E1E1E"/>
<path d="M197.207 14.8184C195.878 14.0584 194.34 13.6729 192.638 13.6729C190.914 13.6729 189.366 14.0584 188.038 14.8184C186.708 15.5795 185.648 16.645 184.887 17.985C184.127 19.3227 183.742 20.8849 183.742 22.6293C183.742 24.3537 184.127 25.9058 184.887 27.2436C185.648 28.5836 186.708 29.6491 188.038 30.4102C189.366 31.1702 190.914 31.5557 192.638 31.5557C194.362 31.5557 195.91 31.1702 197.238 30.4102C198.568 29.648 199.623 28.5824 200.375 27.2414C201.123 25.9047 201.503 24.3526 201.503 22.6293C201.503 20.886 201.118 19.3227 200.358 17.985C199.597 16.6461 198.537 15.5806 197.207 14.8184ZM197.642 22.6304C197.642 23.6792 197.427 24.6126 197.002 25.4059C196.581 26.1914 195.988 26.818 195.241 27.2669C194.495 27.7147 193.618 27.9425 192.637 27.9425C191.656 27.9425 190.779 27.7147 190.033 27.2669C189.284 26.8169 188.685 26.1903 188.254 25.4025C187.82 24.6103 187.6 23.6781 187.6 22.6304C187.6 21.5826 187.82 20.6438 188.255 19.8416C188.686 19.0449 189.284 18.4127 190.033 17.9638C190.779 17.515 191.656 17.2883 192.637 17.2883C193.618 17.2883 194.494 17.5161 195.241 17.9638C195.988 18.4127 196.58 19.0438 197.002 19.8382C197.427 20.6416 197.642 21.5804 197.642 22.6304Z" fill="#1E1E1E"/>
<path d="M221.072 17.9861C221.071 17.9861 221.071 17.9861 221.072 17.9861C220.311 16.6461 219.251 15.5806 217.921 14.8184C216.592 14.0584 215.054 13.6729 213.352 13.6729C211.628 13.6729 210.08 14.0584 208.752 14.8184C207.422 15.5795 206.362 16.645 205.601 17.985C204.841 19.3227 204.456 20.8849 204.456 22.6293C204.456 24.3492 204.812 25.8981 205.518 27.2314C206.226 28.5724 207.212 29.6391 208.449 30.4024C209.687 31.1679 211.131 31.5557 212.739 31.5557C214.229 31.5557 215.569 31.1646 216.72 30.3946C217.333 29.9835 217.882 29.4846 218.357 28.9013V29.0424C218.357 30.2957 218.126 31.3635 217.671 32.2179C217.221 33.0612 216.611 33.7067 215.858 34.1345C215.098 34.5656 214.254 34.7845 213.352 34.7845C212.356 34.7845 211.457 34.6012 210.677 34.2412C209.903 33.8823 209.253 33.3768 208.752 32.7457C208.443 32.3335 208.032 32.0723 207.53 31.9701C207.017 31.8646 206.521 31.969 206.053 32.2812C205.632 32.5701 205.371 32.9612 205.278 33.4412C205.181 33.9323 205.307 34.4078 205.654 34.8623C206.572 36.0145 207.709 36.9033 209.035 37.5022C210.354 38.0977 211.787 38.3988 213.292 38.3988C215.041 38.3988 216.606 37.9855 217.947 37.1711C219.285 36.3567 220.344 35.2445 221.093 33.8645C221.84 32.4879 222.218 30.9379 222.218 29.258V22.6293C222.216 20.886 221.831 19.3238 221.072 17.9861ZM218.356 22.6304C218.356 23.6792 218.141 24.6126 217.716 25.4059C217.295 26.1914 216.703 26.818 215.955 27.2669C215.209 27.7147 214.332 27.9425 213.351 27.9425C212.37 27.9425 211.493 27.7147 210.747 27.2669C209.998 26.8169 209.399 26.1903 208.968 25.4025C208.534 24.6103 208.314 23.6781 208.314 22.6304C208.314 21.5826 208.534 20.6438 208.969 19.8416C209.4 19.0449 209.998 18.4127 210.747 17.9638C211.493 17.515 212.37 17.2883 213.351 17.2883C214.332 17.2883 215.208 17.5161 215.955 17.9638C216.702 18.4127 217.294 19.0438 217.716 19.8382C218.141 20.6415 218.356 21.5804 218.356 22.6304Z" fill="#1E1E1E"/>
<path d="M46.5415 6.29106C45.316 4.28667 43.5182 2.72116 41.1983 1.63897C38.9939 0.610109 36.4129 0.0601241 33.5274 0.00457013C30.6708 -0.0498728 27.6531 0.382337 24.5599 1.28898C21.3688 2.22451 18.2323 3.6278 15.2368 5.45997C12.2413 7.29214 9.56362 9.44542 7.27701 11.8609C5.06041 14.202 3.30157 16.6919 2.04938 19.2596C0.783861 21.8551 0.0983248 24.4028 0.0105495 26.8338C-0.0816702 29.3915 0.492758 31.7048 1.71828 33.7092C2.9438 35.7136 4.74153 37.2791 7.06146 38.3613C9.26585 39.3901 11.8469 39.9401 14.7324 39.9957C14.8935 39.999 15.0546 40.0001 15.2168 40.0001C17.9289 40.0001 20.7811 39.5668 23.6999 38.7102C26.8909 37.7746 30.0275 36.3713 33.023 34.5392C36.0184 32.707 38.6961 30.5537 40.9827 28.1382C43.1993 25.7972 44.9582 23.3073 46.2104 20.7395C47.4748 18.1452 48.1614 15.5975 48.2492 13.1653C48.3414 10.6087 47.767 8.29545 46.5415 6.29106Z" fill="#9AE200"/>
<path d="M23.0495 7.56543H18.2241C17.7608 7.56543 17.3397 7.8332 17.1441 8.25319L14.1365 14.7019L11.7465 19.8262L7.96329 27.9404C7.88774 28.1037 7.85107 28.2749 7.85107 28.4426C7.85107 28.8915 8.10551 29.3204 8.53994 29.5226C10.4766 30.4259 12.7798 29.5881 13.6831 27.6504L17.3319 19.8251H23.0495C26.435 19.8251 29.1805 17.0807 29.1805 13.6941C29.1805 10.3076 26.435 7.56543 23.0495 7.56543Z" fill="white"/>
<path d="M35.1901 20.2373L36.0067 18.4851L36.1312 18.2173C37.0345 16.2807 36.1967 13.9774 34.259 13.0741C34.0957 12.9986 33.9246 12.9619 33.7568 12.9619C33.3079 12.9619 32.879 13.2164 32.6768 13.6497L30.9069 17.4451L30.5313 18.2507L28.4636 22.6839C27.8314 24.0405 27.8514 25.5327 28.3958 26.8093C28.7802 27.7115 29.4258 28.5048 30.288 29.0648C30.4846 29.1926 30.6935 29.3081 30.9113 29.4103C33.4446 30.5914 36.4556 29.4959 37.6378 26.9626C38.8189 24.4294 37.7233 21.4183 35.1901 20.2373Z" fill="white"/>
</g>
<defs>
<clipPath id="clip0">
<rect width="222.216" height="40" fill="white"/>
</clipPath>
</defs>
</svg>
