<?xml version="1.0" encoding="utf-8"?>
<!-- Generator: Adobe Illustrator 23.0.5, SVG Export Plug-In . SVG Version: 6.00 Build 0)  -->
<svg version="1.1" id="Слой_1" xmlns="http://www.w3.org/2000/svg" xmlns:xlink="http://www.w3.org/1999/xlink" x="0px" y="0px"
	 viewBox="0 0 2000 360.01" style="enable-background:new 0 0 2000 360.01;" xml:space="preserve">
<style type="text/css">
	.st0{fill:#9AE200;}
</style>
<g>
	<path class="st0" d="M654.41,69.15C654.4,69.15,654.4,69.15,654.41,69.15c-11.22-6.38-24.21-9.62-38.63-9.62h-55.24
		c-5.05,0-9.39,1.71-12.89,5.09c-3.52,3.41-5.31,7.83-5.31,13.11v186.98c0,5.09,1.77,9.44,5.27,12.93s7.84,5.27,12.93,5.27
		c5.29,0,9.71-1.79,13.12-5.31c3.38-3.49,5.08-7.83,5.08-12.88v-56.65h37.04c14.4,0,27.38-3.14,38.58-9.32
		c11.25-6.21,20.16-14.97,26.48-26.04c6.29-11.04,9.48-23.76,9.48-37.81c0-14.58-3.18-27.7-9.46-39.01
		C674.55,84.55,665.66,75.55,654.41,69.15z M655.03,134.91c0,7.57-1.69,14.36-5.02,20.19c-3.33,5.81-7.96,10.44-13.77,13.76
		c-5.83,3.33-12.71,5.02-20.46,5.02h-37.04V93.72h37.04c7.72,0,14.58,1.77,20.39,5.26c5.82,3.49,10.47,8.35,13.8,14.43
		C653.33,119.54,655.03,126.77,655.03,134.91z"/>
	<path class="st0" d="M816.33,128.53L816.33,128.53c-6.14-4.06-14.91-6.03-26.83-6.03c-11.66,0-22.51,2.77-32.26,8.22
		c-3.76,2.1-7.29,4.58-10.55,7.39c-0.55-3.89-2-7.04-4.34-9.38c-3.04-3.03-7.43-4.57-13.06-4.57c-5.45,0-9.8,1.58-12.93,4.71
		c-3.13,3.13-4.72,7.48-4.72,12.93v123.46c0,5.67,1.61,10.08,4.77,13.11c3.11,3.01,7.45,4.53,12.88,4.53
		c5.66,0,10.08-1.6,13.12-4.77c3-3.12,4.53-7.46,4.53-12.88V184.6c0-7.49,2.3-13.48,7.05-18.3c4.87-4.95,11.7-8.4,20.31-10.26
		c8.83-1.9,18.98-1.71,30.09,0.54c2.89,0.67,5.65,0.78,8.18,0.31c2.7-0.49,5.14-1.67,7.23-3.52c2.2-1.94,3.67-4.64,4.35-7.85
		C825.34,140.93,824.95,134.24,816.33,128.53z"/>
	<path class="st0" d="M948.28,133.37L948.28,133.37c-11.96-6.84-25.8-10.31-41.12-10.31c-15.52,0-29.45,3.47-41.4,10.31
		c-11.97,6.85-21.51,16.44-28.36,28.5c-6.84,12.04-10.31,26.1-10.31,41.8c0,15.52,3.47,29.49,10.31,41.53
		c6.85,12.06,16.39,21.65,28.36,28.5c11.95,6.84,25.88,10.31,41.4,10.31s29.45-3.47,41.4-10.31c11.97-6.86,21.47-16.45,28.23-28.52
		c6.74-12.03,10.16-26,10.16-41.51c0-15.69-3.47-29.76-10.31-41.8C969.79,149.82,960.25,140.23,948.28,133.37z M952.2,203.68
		c0,9.44-1.94,17.84-5.76,24.98c-3.79,7.07-9.13,12.71-15.85,16.75c-6.72,4.03-14.61,6.08-23.44,6.08s-16.72-2.05-23.44-6.08
		c-6.74-4.05-12.13-9.69-16.01-16.78c-3.9-7.13-5.88-15.52-5.88-24.95s1.98-17.88,5.89-25.1c3.88-7.17,9.26-12.86,16-16.9
		c6.72-4.04,14.61-6.08,23.44-6.08s16.71,2.05,23.44,6.08c6.72,4.04,12.05,9.72,15.85,16.87
		C950.26,185.78,952.2,194.23,952.2,203.68z"/>
	<path class="st0" d="M1133.91,124.17c-5.06,0-9.35,1.66-12.75,4.94c-3.43,3.32-5.17,7.69-5.17,12.98V265
		c0,5.09,1.73,9.4,5.12,12.79c3.4,3.41,7.71,5.13,12.8,5.13c5.29,0,9.66-1.74,12.98-5.18c3.28-3.39,4.94-7.68,4.94-12.75v-122.9
		c0-5.27-1.68-9.62-4.99-12.93C1143.52,125.84,1139.17,124.17,1133.91,124.17z"/>
	<path class="st0" d="M1131.32,60.81L1131.32,60.81c-6.89-2.13-15.03-3.21-24.2-3.21c-19.08,0-34.92,2.91-47.08,8.65
		c-12.39,5.86-21.62,14.26-27.41,24.98c-5.72,10.55-8.61,23.2-8.61,37.59v0.86h-8.04c-4.85,0-8.88,1.46-11.99,4.33
		c-3.2,2.95-4.83,6.88-4.83,11.66c0,4.42,1.63,8.15,4.83,11.1c3.11,2.88,7.14,4.33,11.99,4.33h8.04v103.88
		c0,4.88,1.71,9.12,5.08,12.61c3.41,3.53,7.72,5.31,12.84,5.31c5.11,0,9.43-1.79,12.84-5.31c3.38-3.49,5.08-7.73,5.08-12.61V161.11
		h24.61c4.84,0,8.87-1.46,11.99-4.33c3.2-2.96,4.82-6.69,4.82-11.1c0-4.77-1.62-8.69-4.82-11.66c-3.12-2.87-7.15-4.33-11.99-4.33
		h-24.61v-0.86c0-12,1.75-21.33,5.2-27.73c3.34-6.19,7.7-10.5,12.95-12.81c5.56-2.44,11.55-3.68,17.79-3.68
		c3.8,0,7.13,0.7,9.88,2.08c3.09,1.54,6.05,3.37,8.8,5.44c3.08,2.31,6.25,4.36,9.44,6.1c3.59,1.96,7.69,2.96,12.2,2.96
		c16.31,0,18.75-10.02,18.75-15.99c0-5.86-2.26-10.98-6.72-15.21C1144.05,66.09,1138.39,63.01,1131.32,60.81z"/>
	<path class="st0" d="M1263.72,247.62h-9.39c-4.72,0-8.63-1.98-11.94-6.04c-3.51-4.31-5.21-9.57-5.21-16.08v-64.38h19.64
		c4.84,0,8.87-1.46,11.99-4.33c3.2-2.96,4.82-6.69,4.82-11.1c0-4.77-1.62-8.69-4.83-11.66c-3.12-2.87-7.15-4.33-11.99-4.33h-19.64
		V93.76c0-5.08-1.68-9.34-4.99-12.66c-3.32-3.31-7.57-4.99-12.65-4.99c-5.08,0-9.34,1.68-12.66,4.99
		c-3.31,3.31-4.99,7.57-4.99,12.66v35.93h-8.87c-4.85,0-8.89,1.46-11.99,4.33c-3.2,2.96-4.82,6.88-4.82,11.66
		c0,4.41,1.62,8.15,4.82,11.1c3.11,2.88,7.14,4.33,11.99,4.33h8.87v64.38c0,10.71,2.29,20.51,6.79,29.12
		c4.53,8.67,10.83,15.62,18.74,20.65c7.96,5.07,17.01,7.64,26.92,7.64h4.97c5.71,0,10.49-1.61,14.22-4.78
		c3.92-3.33,5.91-7.66,5.91-12.87c0-5-1.49-9.21-4.43-12.5C1271.94,249.35,1268.15,247.62,1263.72,247.62z"/>
	<path class="st0" d="M1519.71,161.43c5.55-3.88,10.19-8.57,13.85-14.03c5.29-7.88,7.97-16.83,7.97-26.58
		c0-11.9-2.94-22.62-8.74-31.87c-5.77-9.2-13.8-16.49-23.87-21.67c-9.99-5.14-21.69-7.75-34.76-7.75h-66.01
		c-5.05,0-9.39,1.71-12.89,5.08c-3.53,3.41-5.31,7.82-5.31,13.12v186.98c0,5.09,1.77,9.44,5.27,12.93c3.49,3.5,7.84,5.27,12.93,5.27
		h71.81c14.38,0,27.34-2.98,38.52-8.87c11.25-5.91,20.16-14.14,26.48-24.45c6.33-10.33,9.54-22.34,9.54-35.7
		c0-14.86-4.02-27.12-11.96-36.46C1536.48,170.31,1528.82,164.94,1519.71,161.43z M1426.36,182.38h53.61
		c7.92,0,14.95,1.25,20.9,3.71c5.74,2.38,10.29,5.89,13.54,10.43c3.19,4.47,4.81,10.32,4.81,17.38c0,7.68-1.65,14.14-4.91,19.19
		c-3.32,5.14-7.75,8.92-13.56,11.57c-5.91,2.7-12.9,4.07-20.78,4.07h-53.61V182.38z M1497.66,141.25
		c-6.01,4.6-13.91,6.94-23.49,6.94h-47.81V93.72h47.81c9.59,0,17.5,2.3,23.51,6.83c5.75,4.34,8.55,10.97,8.55,20.27
		C1506.24,130.14,1503.43,136.83,1497.66,141.25z"/>
	<path class="st0" d="M1633.53,247.62h-6.9c-1.66,0-4.16-0.49-6.63-4.73c-2.22-3.8-3.34-8.82-3.34-14.92V77.18
		c0-5.08-1.68-9.33-4.99-12.66c-3.32-3.31-7.58-4.99-12.66-4.99c-5.08,0-9.34,1.68-12.65,4.99s-4.99,7.57-4.99,12.65v150.8
		c0,10.46,1.88,19.87,5.6,27.97c3.76,8.23,9.11,14.83,15.91,19.63c6.89,4.86,14.88,7.33,23.75,7.33h0.55
		c6.34,0,11.66-1.55,15.81-4.62c4.45-3.28,6.81-7.79,6.81-13.03c0-5-1.49-9.21-4.43-12.51
		C1642.31,249.35,1638.33,247.62,1633.53,247.62z"/>
	<path class="st0" d="M1774.91,133.37L1774.91,133.37c-11.96-6.84-25.8-10.31-41.12-10.31c-15.52,0-29.45,3.47-41.4,10.31
		c-11.97,6.85-21.51,16.44-28.36,28.5c-6.84,12.04-10.31,26.1-10.31,41.8c0,15.52,3.47,29.49,10.31,41.53
		c6.85,12.06,16.39,21.65,28.36,28.5c11.95,6.84,25.88,10.31,41.4,10.31s29.45-3.47,41.4-10.31c11.97-6.86,21.47-16.45,28.23-28.52
		c6.74-12.03,10.16-26,10.16-41.51c0-15.69-3.47-29.76-10.31-41.8C1796.42,149.82,1786.88,140.23,1774.91,133.37z M1778.83,203.68
		c0,9.44-1.94,17.84-5.76,24.98c-3.79,7.07-9.13,12.71-15.85,16.75c-6.72,4.03-14.61,6.08-23.44,6.08s-16.72-2.05-23.44-6.08
		c-6.74-4.05-12.13-9.69-16.01-16.78c-3.9-7.13-5.88-15.52-5.88-24.95s1.98-17.88,5.89-25.1c3.88-7.17,9.26-12.86,16-16.9
		c6.72-4.04,14.61-6.08,23.44-6.08s16.71,2.05,23.44,6.08c6.72,4.04,12.05,9.72,15.85,16.87
		C1776.89,185.78,1778.83,194.23,1778.83,203.68z"/>
	<path class="st0" d="M1989.7,161.88C1989.69,161.88,1989.69,161.88,1989.7,161.88c-6.85-12.06-16.39-21.65-28.36-28.51
		c-11.96-6.84-25.8-10.31-41.12-10.31c-15.52,0-29.45,3.47-41.4,10.31c-11.97,6.85-21.51,16.44-28.36,28.5
		c-6.84,12.04-10.31,26.1-10.31,41.8c0,15.48,3.21,29.42,9.56,41.42c6.37,12.07,15.25,21.67,26.38,28.54
		c11.14,6.89,24.14,10.38,38.61,10.38c13.41,0,25.47-3.52,35.83-10.45c5.52-3.7,10.46-8.19,14.74-13.44v1.27
		c0,11.28-2.08,20.89-6.18,28.58c-4.05,7.59-9.54,13.4-16.32,17.25c-6.84,3.88-14.43,5.85-22.55,5.85c-8.96,0-17.06-1.65-24.08-4.89
		c-6.96-3.23-12.81-7.78-17.32-13.46c-2.78-3.71-6.48-6.06-11-6.98c-4.62-0.95-9.08-0.01-13.29,2.8c-3.79,2.6-6.14,6.12-6.98,10.44
		c-0.87,4.42,0.26,8.7,3.39,12.79c8.26,10.37,18.49,18.37,30.43,23.76c11.87,5.36,24.76,8.07,38.31,8.07
		c15.74,0,29.83-3.72,41.9-11.05c12.04-7.33,21.57-17.34,28.31-29.76c6.72-12.39,10.13-26.34,10.13-41.46v-59.66
		C2000,187.98,1996.53,173.92,1989.7,161.88z M1965.26,203.68c0,9.44-1.94,17.84-5.76,24.98c-3.79,7.07-9.12,12.71-15.85,16.75
		c-6.72,4.03-14.61,6.08-23.44,6.08s-16.72-2.05-23.44-6.08c-6.74-4.05-12.13-9.69-16.01-16.78c-3.9-7.13-5.88-15.52-5.88-24.95
		s1.98-17.88,5.89-25.1c3.88-7.17,9.26-12.86,16-16.9c6.72-4.04,14.61-6.08,23.44-6.08s16.71,2.05,23.44,6.08
		c6.72,4.04,12.05,9.72,15.85,16.87C1963.32,185.78,1965.26,194.23,1965.26,203.68z"/>
</g>
<g>
	<path class="st0" d="M418.88,56.62c-11.03-18.04-27.21-32.13-48.09-41.87c-19.84-9.26-43.07-14.21-69.04-14.71
		c-25.71-0.49-52.87,3.4-80.71,11.56c-28.72,8.42-56.95,21.05-83.91,37.54s-51.06,35.87-71.64,57.61
		c-19.95,21.07-35.78,43.48-47.05,66.59C7.05,196.7,0.88,219.63,0.09,241.51c-0.83,23.02,4.34,43.84,15.37,61.88
		c11.03,18.04,27.21,32.13,48.09,41.87c19.84,9.26,43.07,14.21,69.04,14.71c1.45,0.03,2.9,0.04,4.36,0.04
		c24.41,0,50.08-3.9,76.35-11.61c28.72-8.42,56.95-21.05,83.91-37.54c26.96-16.49,51.06-35.87,71.64-57.61
		c19.95-21.07,35.78-43.48,47.05-66.59c11.38-23.35,17.56-46.28,18.35-68.17C435.08,95.48,429.91,74.66,418.88,56.62z
		 M207.45,178.43h-51.46l-32.84,70.43c-8.13,17.44-28.86,24.98-46.29,16.85c-3.91-1.82-6.2-5.68-6.2-9.72
		c0-1.51,0.33-3.05,1.01-4.52l34.05-73.03l21.51-46.12l27.07-58.04c1.76-3.78,5.55-6.19,9.72-6.19h43.43
		c30.47,0,55.18,24.68,55.18,55.16S237.92,178.43,207.45,178.43z M338.75,242.67c-10.64,22.8-37.74,32.66-60.54,22.03
		c-1.96-0.92-3.84-1.96-5.61-3.11c-7.76-5.04-13.57-12.18-17.03-20.3c-4.9-11.49-5.08-24.92,0.61-37.13l18.61-39.9l3.38-7.25
		l15.93-34.16c1.82-3.9,5.68-6.19,9.72-6.19c1.51,0,3.05,0.33,4.52,1.01c17.44,8.13,24.98,28.86,16.85,46.29l-1.12,2.41l-7.35,15.77
		C339.52,192.77,349.38,219.87,338.75,242.67z"/>
</g>
</svg>
